<svg width="700" height="60" viewBox="0 0 700 60" fill="none" xmlns="http://www.w3.org/2000/svg">
<path d="M36.2891 20.3887L36.5195 21.0273L37.1982 21.0488L55.7275 21.6396L41.085 33.0107L40.5488 33.4277L40.7373 34.0791L45.9004 51.8848L30.5615 41.4727L30 41.0918L29.4385 41.4727L14.0986 51.8848L19.2627 34.0791L19.4512 33.4277L18.915 33.0107L4.27148 21.6396L22.8018 21.0488L23.4805 21.0273L23.7109 20.3887L30 2.94629L36.2891 20.3887Z" fill="url(#paint0_linear_1437_3493)"/>
<path d="M36.2891 20.3887L36.5195 21.0273L37.1982 21.0488L55.7275 21.6396L41.085 33.0107L40.5488 33.4277L40.7373 34.0791L45.9004 51.8848L30.5615 41.4727L30 41.0918L29.4385 41.4727L14.0986 51.8848L19.2627 34.0791L19.4512 33.4277L18.915 33.0107L4.27148 21.6396L22.8018 21.0488L23.4805 21.0273L23.7109 20.3887L30 2.94629L36.2891 20.3887Z" stroke="url(#paint1_linear_1437_3493)" style="mix-blend-mode:overlay" stroke-width="2"/>
<path d="M36.2891 20.3887L36.5195 21.0273L37.1982 21.0488L55.7275 21.6396L41.085 33.0107L40.5488 33.4277L40.7373 34.0791L45.9004 51.8848L30.5615 41.4727L30 41.0918L29.4385 41.4727L14.0986 51.8848L19.2627 34.0791L19.4512 33.4277L18.915 33.0107L4.27148 21.6396L22.8018 21.0488L23.4805 21.0273L23.7109 20.3887L30 2.94629L36.2891 20.3887Z" stroke="url(#paint2_linear_1437_3493)" style="mix-blend-mode:overlay" stroke-width="2"/>
<path d="M196.289 20.3887L196.52 21.0273L197.198 21.0488L215.728 21.6396L201.085 33.0107L200.549 33.4277L200.737 34.0791L205.9 51.8848L190.562 41.4727L190 41.0918L189.438 41.4727L174.099 51.8848L179.263 34.0791L179.451 33.4277L178.915 33.0107L164.271 21.6396L182.802 21.0488L183.48 21.0273L183.711 20.3887L190 2.94629L196.289 20.3887Z" fill="url(#paint3_linear_1437_3493)"/>
<path d="M196.289 20.3887L196.52 21.0273L197.198 21.0488L215.728 21.6396L201.085 33.0107L200.549 33.4277L200.737 34.0791L205.9 51.8848L190.562 41.4727L190 41.0918L189.438 41.4727L174.099 51.8848L179.263 34.0791L179.451 33.4277L178.915 33.0107L164.271 21.6396L182.802 21.0488L183.48 21.0273L183.711 20.3887L190 2.94629L196.289 20.3887Z" stroke="url(#paint4_linear_1437_3493)" style="mix-blend-mode:overlay" stroke-width="2"/>
<path d="M196.289 20.3887L196.52 21.0273L197.198 21.0488L215.728 21.6396L201.085 33.0107L200.549 33.4277L200.737 34.0791L205.9 51.8848L190.562 41.4727L190 41.0918L189.438 41.4727L174.099 51.8848L179.263 34.0791L179.451 33.4277L178.915 33.0107L164.271 21.6396L182.802 21.0488L183.48 21.0273L183.711 20.3887L190 2.94629L196.289 20.3887Z" stroke="url(#paint5_linear_1437_3493)" style="mix-blend-mode:overlay" stroke-width="2"/>
<path d="M356.289 20.3887L356.52 21.0273L357.198 21.0488L375.728 21.6396L361.085 33.0107L360.549 33.4277L360.737 34.0791L365.9 51.8848L350.562 41.4727L350 41.0918L349.438 41.4727L334.099 51.8848L339.263 34.0791L339.451 33.4277L338.915 33.0107L324.271 21.6396L342.802 21.0488L343.48 21.0273L343.711 20.3887L350 2.94629L356.289 20.3887Z" fill="url(#paint6_linear_1437_3493)"/>
<path d="M356.289 20.3887L356.52 21.0273L357.198 21.0488L375.728 21.6396L361.085 33.0107L360.549 33.4277L360.737 34.0791L365.9 51.8848L350.562 41.4727L350 41.0918L349.438 41.4727L334.099 51.8848L339.263 34.0791L339.451 33.4277L338.915 33.0107L324.271 21.6396L342.802 21.0488L343.48 21.0273L343.711 20.3887L350 2.94629L356.289 20.3887Z" stroke="url(#paint7_linear_1437_3493)" style="mix-blend-mode:overlay" stroke-width="2"/>
<path d="M356.289 20.3887L356.52 21.0273L357.198 21.0488L375.728 21.6396L361.085 33.0107L360.549 33.4277L360.737 34.0791L365.9 51.8848L350.562 41.4727L350 41.0918L349.438 41.4727L334.099 51.8848L339.263 34.0791L339.451 33.4277L338.915 33.0107L324.271 21.6396L342.802 21.0488L343.48 21.0273L343.711 20.3887L350 2.94629L356.289 20.3887Z" stroke="url(#paint8_linear_1437_3493)" style="mix-blend-mode:overlay" stroke-width="2"/>
<path d="M516.289 20.3887L516.52 21.0273L517.198 21.0488L535.728 21.6396L521.085 33.0107L520.549 33.4277L520.737 34.0791L525.9 51.8848L510.562 41.4727L510 41.0918L509.438 41.4727L494.099 51.8848L499.263 34.0791L499.451 33.4277L498.915 33.0107L484.271 21.6396L502.802 21.0488L503.48 21.0273L503.711 20.3887L510 2.94629L516.289 20.3887Z" fill="url(#paint9_linear_1437_3493)"/>
<path d="M516.289 20.3887L516.52 21.0273L517.198 21.0488L535.728 21.6396L521.085 33.0107L520.549 33.4277L520.737 34.0791L525.9 51.8848L510.562 41.4727L510 41.0918L509.438 41.4727L494.099 51.8848L499.263 34.0791L499.451 33.4277L498.915 33.0107L484.271 21.6396L502.802 21.0488L503.48 21.0273L503.711 20.3887L510 2.94629L516.289 20.3887Z" stroke="url(#paint10_linear_1437_3493)" style="mix-blend-mode:overlay" stroke-width="2"/>
<path d="M516.289 20.3887L516.52 21.0273L517.198 21.0488L535.728 21.6396L521.085 33.0107L520.549 33.4277L520.737 34.0791L525.9 51.8848L510.562 41.4727L510 41.0918L509.438 41.4727L494.099 51.8848L499.263 34.0791L499.451 33.4277L498.915 33.0107L484.271 21.6396L502.802 21.0488L503.48 21.0273L503.711 20.3887L510 2.94629L516.289 20.3887Z" stroke="url(#paint11_linear_1437_3493)" style="mix-blend-mode:overlay" stroke-width="2"/>
<path d="M676.289 20.3887L676.52 21.0273L677.198 21.0488L695.728 21.6396L681.085 33.0107L680.549 33.4277L680.737 34.0791L685.9 51.8848L670.562 41.4727L670 41.0918L669.438 41.4727L654.099 51.8848L659.263 34.0791L659.451 33.4277L658.915 33.0107L644.271 21.6396L662.802 21.0488L663.48 21.0273L663.711 20.3887L670 2.94629L676.289 20.3887Z" fill="url(#paint12_linear_1437_3493)"/>
<path d="M676.289 20.3887L676.52 21.0273L677.198 21.0488L695.728 21.6396L681.085 33.0107L680.549 33.4277L680.737 34.0791L685.9 51.8848L670.562 41.4727L670 41.0918L669.438 41.4727L654.099 51.8848L659.263 34.0791L659.451 33.4277L658.915 33.0107L644.271 21.6396L662.802 21.0488L663.48 21.0273L663.711 20.3887L670 2.94629L676.289 20.3887Z" stroke="url(#paint13_linear_1437_3493)" style="mix-blend-mode:overlay" stroke-width="2"/>
<path d="M676.289 20.3887L676.52 21.0273L677.198 21.0488L695.728 21.6396L681.085 33.0107L680.549 33.4277L680.737 34.0791L685.9 51.8848L670.562 41.4727L670 41.0918L669.438 41.4727L654.099 51.8848L659.263 34.0791L659.451 33.4277L658.915 33.0107L644.271 21.6396L662.802 21.0488L663.48 21.0273L663.711 20.3887L670 2.94629L676.289 20.3887Z" stroke="url(#paint14_linear_1437_3493)" style="mix-blend-mode:overlay" stroke-width="2"/>
<defs>
<linearGradient id="paint0_linear_1437_3493" x1="-8.37209" y1="48.5172" x2="71.4827" y2="-2.1656" gradientUnits="userSpaceOnUse">
<stop stop-color="#2C1AFF"/>
<stop offset="0.979637" stop-color="#13C6FF" stop-opacity="0"/>
</linearGradient>
<linearGradient id="paint1_linear_1437_3493" x1="49.6364" y1="3.81818" x2="2.72727" y2="61.7727" gradientUnits="userSpaceOnUse">
<stop stop-color="white" stop-opacity="0.7"/>
<stop offset="1" stop-color="white" stop-opacity="0"/>
</linearGradient>
<linearGradient id="paint2_linear_1437_3493" x1="15.1364" y1="12.2727" x2="4.90909" y2="3.95455" gradientUnits="userSpaceOnUse">
<stop stop-color="white"/>
<stop offset="1" stop-color="white" stop-opacity="0"/>
</linearGradient>
<linearGradient id="paint3_linear_1437_3493" x1="151.628" y1="48.5172" x2="231.483" y2="-2.1656" gradientUnits="userSpaceOnUse">
<stop stop-color="#2C1AFF"/>
<stop offset="0.979637" stop-color="#13C6FF" stop-opacity="0"/>
</linearGradient>
<linearGradient id="paint4_linear_1437_3493" x1="209.636" y1="3.81818" x2="162.727" y2="61.7727" gradientUnits="userSpaceOnUse">
<stop stop-color="white" stop-opacity="0.7"/>
<stop offset="1" stop-color="white" stop-opacity="0"/>
</linearGradient>
<linearGradient id="paint5_linear_1437_3493" x1="175.136" y1="12.2727" x2="164.909" y2="3.95455" gradientUnits="userSpaceOnUse">
<stop stop-color="white"/>
<stop offset="1" stop-color="white" stop-opacity="0"/>
</linearGradient>
<linearGradient id="paint6_linear_1437_3493" x1="311.628" y1="48.5172" x2="391.483" y2="-2.1656" gradientUnits="userSpaceOnUse">
<stop stop-color="#2C1AFF"/>
<stop offset="0.979637" stop-color="#13C6FF" stop-opacity="0"/>
</linearGradient>
<linearGradient id="paint7_linear_1437_3493" x1="369.636" y1="3.81818" x2="322.727" y2="61.7727" gradientUnits="userSpaceOnUse">
<stop stop-color="white" stop-opacity="0.7"/>
<stop offset="1" stop-color="white" stop-opacity="0"/>
</linearGradient>
<linearGradient id="paint8_linear_1437_3493" x1="335.136" y1="12.2727" x2="324.909" y2="3.95455" gradientUnits="userSpaceOnUse">
<stop stop-color="white"/>
<stop offset="1" stop-color="white" stop-opacity="0"/>
</linearGradient>
<linearGradient id="paint9_linear_1437_3493" x1="471.628" y1="48.5172" x2="551.483" y2="-2.1656" gradientUnits="userSpaceOnUse">
<stop stop-color="#2C1AFF"/>
<stop offset="0.979637" stop-color="#13C6FF" stop-opacity="0"/>
</linearGradient>
<linearGradient id="paint10_linear_1437_3493" x1="529.636" y1="3.81818" x2="482.727" y2="61.7727" gradientUnits="userSpaceOnUse">
<stop stop-color="white" stop-opacity="0.7"/>
<stop offset="1" stop-color="white" stop-opacity="0"/>
</linearGradient>
<linearGradient id="paint11_linear_1437_3493" x1="495.136" y1="12.2727" x2="484.909" y2="3.95455" gradientUnits="userSpaceOnUse">
<stop stop-color="white"/>
<stop offset="1" stop-color="white" stop-opacity="0"/>
</linearGradient>
<linearGradient id="paint12_linear_1437_3493" x1="631.628" y1="48.5172" x2="711.483" y2="-2.1656" gradientUnits="userSpaceOnUse">
<stop stop-color="#2C1AFF"/>
<stop offset="0.979637" stop-color="#13C6FF" stop-opacity="0"/>
</linearGradient>
<linearGradient id="paint13_linear_1437_3493" x1="689.636" y1="3.81818" x2="642.727" y2="61.7727" gradientUnits="userSpaceOnUse">
<stop stop-color="white" stop-opacity="0.7"/>
<stop offset="1" stop-color="white" stop-opacity="0"/>
</linearGradient>
<linearGradient id="paint14_linear_1437_3493" x1="655.136" y1="12.2727" x2="644.909" y2="3.95455" gradientUnits="userSpaceOnUse">
<stop stop-color="white"/>
<stop offset="1" stop-color="white" stop-opacity="0"/>
</linearGradient>
</defs>
</svg>
