<svg width="23" height="13" viewBox="0 0 23 13" fill="none" xmlns="http://www.w3.org/2000/svg">
<path fill-rule="evenodd" clip-rule="evenodd" d="M21.7066 0.877521C21.8603 0.372113 21.7066 0 20.9707 0H18.5409C17.9225 0 17.6374 0.321202 17.4828 0.675728C17.4828 0.675728 16.2471 3.63412 14.4967 5.55578C13.9302 6.11302 13.6728 6.28982 13.3637 6.28982C13.2091 6.28982 12.9768 6.11302 12.9768 5.60669V0.877521C12.9768 0.270291 12.8064 0 12.2918 0H8.47067C8.08467 0 7.85233 0.281399 7.85233 0.548913C7.85233 1.12374 8.728 1.25704 8.81779 2.87508V6.39072C8.81779 7.16179 8.67616 7.30156 8.36699 7.30156C7.54316 7.30156 5.53912 4.32929 4.34965 0.928431C4.11916 0.266588 3.8859 0 3.26478 0H0.833089C0.138848 0 0 0.321202 0 0.675728C0 1.30702 0.823833 4.44314 3.83684 8.591C5.84551 11.4235 8.67338 12.9592 11.2495 12.9592C12.7944 12.9592 12.9851 12.6185 12.9851 12.0307V9.88969C12.9851 9.20749 13.1313 9.07141 13.621 9.07141C13.982 9.07141 14.5994 9.24914 16.0416 10.6145C17.6893 12.2334 17.9605 12.9592 18.888 12.9592H21.3178C22.0121 12.9592 22.3601 12.6185 22.1602 11.9446C21.9399 11.2745 21.1531 10.3016 20.1098 9.14732C19.5433 8.4901 18.6936 7.78198 18.4353 7.42745C18.0753 6.97296 18.178 6.77024 18.4353 6.36573C18.4353 6.36573 21.3974 2.26878 21.7057 0.877521H21.7066Z" fill="white" fill-opacity="0.15"/>
</svg>
