<svg width="49" height="49" viewBox="0 0 49 49" fill="none" xmlns="http://www.w3.org/2000/svg">
<rect width="49" height="49" rx="24.5" fill="white" fill-opacity="0.05"/>
<path fill-rule="evenodd" clip-rule="evenodd" d="M19.7982 18C17.6215 18 16 19.6068 16 21.4194C16 22.2985 16.3784 23.1601 17.0828 23.8089L24.5 30.6405L31.9172 23.8089C32.6216 23.1601 33 22.2985 33 21.4194C33 19.6068 31.3785 18 29.2018 18C28.1691 18 27.1936 18.3786 26.4864 19.03L25.1775 20.2355C24.7946 20.5882 24.2054 20.5882 23.8225 20.2355L22.5136 19.03C21.8064 18.3786 20.8309 18 19.7982 18ZM14 21.4194C14 18.3505 16.675 16 19.7982 16C21.3107 16 22.7761 16.5526 23.8686 17.5589L24.5 18.1405L25.1314 17.5589C26.2239 16.5526 27.6893 16 29.2018 16C32.325 16 35 18.3505 35 21.4194C35 22.8845 34.3674 24.2712 33.2721 25.28L25.1775 32.7355C24.7946 33.0882 24.2054 33.0882 23.8225 32.7355L15.7279 25.28C14.6326 24.2712 14 22.8845 14 21.4194Z" fill="white"/>
</svg>
