<svg width="118" height="21" viewBox="0 0 118 21" fill="none" xmlns="http://www.w3.org/2000/svg">
<path d="M21.9624 0H0V20.7993H21.9624V0Z" fill="#00B67A"/>
<path d="M45.7549 0H23.7925V20.7993H45.7549V0Z" fill="#00B67A"/>
<path d="M69.5474 0H47.585V20.7993H69.5474V0Z" fill="#00B67A"/>
<path d="M93.3404 0H71.3779V20.7993H93.3404V0Z" fill="#00B67A"/>
<path d="M117.133 0H95.1704V20.7993H117.133V0Z" fill="#00B67A"/>
<path d="M10.9808 14.0177L14.3209 13.2161L15.7164 17.2893L10.9808 14.0177ZM18.6676 8.75292H12.7881L10.9808 3.50977L9.17347 8.75292H3.29395L8.05247 12.0028L6.24515 17.246L11.0037 13.9961L13.932 12.0028L18.6676 8.75292Z" fill="white"/>
<path d="M34.7738 14.0177L38.1139 13.2161L39.5094 17.2893L34.7738 14.0177ZM42.4606 8.75292H36.5811L34.7738 3.50977L32.9664 8.75292H27.0869L31.8454 12.0028L30.0381 17.246L34.7966 13.9961L37.725 12.0028L42.4606 8.75292Z" fill="white"/>
<path d="M58.5662 14.0177L61.9064 13.2161L63.3019 17.2893L58.5662 14.0177ZM66.2531 8.75292H60.3736L58.5662 3.50977L56.7589 8.75292H50.8794L55.6379 12.0028L53.8306 17.246L58.5891 13.9961L61.5174 12.0028L66.2531 8.75292Z" fill="white"/>
<path d="M82.3587 14.0177L85.6988 13.2161L87.0944 17.2893L82.3587 14.0177ZM90.0456 8.75292H84.166L82.3587 3.50977L80.5514 8.75292H74.6719L79.4304 12.0028L77.6231 17.246L82.3816 13.9961L85.3099 12.0028L90.0456 8.75292Z" fill="white"/>
<path d="M106.151 14.0177L109.491 13.2161L110.887 17.2893L106.151 14.0177ZM113.838 8.75292H107.959L106.151 3.50977L104.344 8.75292H98.4644L103.223 12.0028L101.416 17.246L106.174 13.9961L109.102 12.0028L113.838 8.75292Z" fill="white"/>
</svg>
