<svg width="181" height="33" viewBox="0 0 181 33" fill="none" xmlns="http://www.w3.org/2000/svg">
<g clip-path="url(#clip0_1804_5633)">
<path d="M33.8673 0H0V32.841H33.8673V0Z" fill="#00B67A"/>
<path d="M70.5567 0H36.6895V32.841H70.5567V0Z" fill="#00B67A"/>
<path d="M107.246 0H73.3789V32.841H107.246V0Z" fill="#00B67A"/>
<path d="M143.936 0H110.068V32.841H143.936V0Z" fill="#00B67A"/>
<path d="M180.626 0H146.758V32.841H180.626V0Z" fill="#00B67A"/>
<path d="M16.9336 22.1335L22.0843 20.8678L24.2363 27.2992L16.9336 22.1335ZM28.7872 13.8207H19.7206L16.9336 5.54199L14.1466 13.8207H5.08008L12.418 18.9521L9.63099 27.2307L16.9689 22.0993L21.4845 18.9521L28.7872 13.8207Z" fill="white"/>
<path d="M53.6231 22.1335L58.7737 20.8678L60.9257 27.2992L53.6231 22.1335ZM65.4766 13.8207H56.4101L53.6231 5.54199L50.8361 13.8207H41.7695L49.1074 18.9521L46.3204 27.2307L53.6584 22.0993L58.174 18.9521L65.4766 13.8207Z" fill="white"/>
<path d="M90.3125 22.1335L95.4632 20.8678L97.6152 27.2992L90.3125 22.1335ZM102.166 13.8207H93.0995L90.3125 5.54199L87.5255 13.8207H78.459L85.7969 18.9521L83.0099 27.2307L90.3478 22.0993L94.8634 18.9521L102.166 13.8207Z" fill="white"/>
<path d="M127.002 22.1335L132.153 20.8678L134.305 27.2992L127.002 22.1335ZM138.856 13.8207H129.789L127.002 5.54199L124.215 13.8207H115.148L122.486 18.9521L119.699 27.2307L127.037 22.0993L131.553 18.9521L138.856 13.8207Z" fill="white"/>
<path d="M163.692 22.1335L168.843 20.8678L170.995 27.2992L163.692 22.1335ZM175.545 13.8207H166.479L163.692 5.54199L160.905 13.8207H151.838L159.176 18.9521L156.389 27.2307L163.727 22.0993L168.243 18.9521L175.545 13.8207Z" fill="white"/>
</g>
<defs>
<clipPath id="clip0_1804_5633">
<rect width="180.626" height="32.841" fill="white"/>
</clipPath>
</defs>
</svg>
