<svg width="11" height="10" viewBox="0 0 11 10" fill="none" xmlns="http://www.w3.org/2000/svg">
<path fill-rule="evenodd" clip-rule="evenodd" d="M-0.000225067 4.92615C-0.000225067 5.11276 0.0718498 5.29173 0.200146 5.42368C0.328442 5.55563 0.502449 5.62976 0.683887 5.62976H8.61L5.67242 8.64965C5.60882 8.71507 5.55836 8.79273 5.52394 8.87821C5.48952 8.96368 5.4718 9.05529 5.4718 9.14781C5.4718 9.24032 5.48952 9.33193 5.52394 9.41741C5.55836 9.50288 5.60882 9.58054 5.67242 9.64596C5.73603 9.71138 5.81154 9.76327 5.89465 9.79868C5.97775 9.83408 6.06682 9.8523 6.15678 9.8523C6.24673 9.8523 6.3358 9.83408 6.4189 9.79868C6.50201 9.76327 6.57752 9.71138 6.64113 9.64596L10.7458 5.42431C10.8095 5.35895 10.86 5.2813 10.8945 5.19582C10.929 5.11034 10.9468 5.0187 10.9468 4.92615C10.9468 4.8336 10.929 4.74196 10.8945 4.65648C10.86 4.571 10.8095 4.49336 10.7458 4.428L6.64113 0.206343C6.51267 0.0742238 6.33844 0 6.15678 0C5.97511 0 5.80088 0.0742238 5.67242 0.206343C5.54397 0.338462 5.4718 0.517654 5.4718 0.704498C5.4718 0.891342 5.54397 1.07053 5.67242 1.20265L8.61 4.22254H0.683887C0.502449 4.22254 0.328442 4.29667 0.200146 4.42863C0.0718498 4.56058 -0.000225067 4.73954 -0.000225067 4.92615Z" fill="#366EDC"/>
</svg>
