<svg width="27" height="27" viewBox="0 0 27 27" fill="none" xmlns="http://www.w3.org/2000/svg">
<path opacity="0.4" fill-rule="evenodd" clip-rule="evenodd" d="M13.1364 24.6309C16.1849 24.6309 19.1085 23.4199 21.2641 21.2643C23.4197 19.1087 24.6308 16.185 24.6308 13.1365C24.6308 10.0881 23.4197 7.16442 21.2641 5.00881C19.1085 2.8532 16.1849 1.64219 13.1364 1.64219C10.0879 1.64219 7.16428 2.8532 5.00867 5.00881C2.85306 7.16442 1.64205 10.0881 1.64205 13.1365C1.64205 16.185 2.85306 19.1087 5.00867 21.2643C7.16428 23.4199 10.0879 24.6309 13.1364 24.6309ZM13.1364 0.000144384C16.6204 0.000144232 19.9617 1.38415 22.4252 3.84771C24.8888 6.31126 26.2728 9.65256 26.2728 13.1365C26.2728 16.6205 24.8888 19.9618 22.4252 22.4254C19.9617 24.8889 16.6204 26.2729 13.1364 26.2729C9.65241 26.2729 6.31112 24.8889 3.84756 22.4254C1.38401 19.9618 -4.2192e-07 16.6205 -5.7421e-07 13.1365C-7.265e-07 9.65256 1.38401 6.31126 3.84756 3.84771C6.31112 1.38415 9.65241 0.000144537 13.1364 0.000144384ZM7.38923 12.3155C7.17148 12.3155 6.96265 12.402 6.80867 12.556C6.6547 12.71 6.5682 12.9188 6.5682 13.1365C6.5682 13.3543 6.6547 13.5631 6.80867 13.7171C6.96265 13.8711 7.17148 13.9576 7.38923 13.9576L16.9016 13.9576L13.3761 17.4814C13.222 17.6356 13.1354 17.8447 13.1354 18.0627C13.1354 18.2807 13.222 18.4898 13.3761 18.644C13.5303 18.7981 13.7394 18.8848 13.9574 18.8848C14.1755 18.8848 14.3845 18.7981 14.5387 18.644L19.4649 13.7178C19.5413 13.6416 19.602 13.551 19.6434 13.4512C19.6848 13.3515 19.7061 13.2445 19.7061 13.1365C19.7061 13.0286 19.6848 12.9216 19.6434 12.8219C19.602 12.7221 19.5413 12.6315 19.4649 12.5553L14.5387 7.62911C14.3845 7.47494 14.1755 7.38833 13.9574 7.38833C13.7394 7.38833 13.5303 7.47494 13.3761 7.62911C13.222 7.78328 13.1354 7.99237 13.1354 8.2104C13.1354 8.42842 13.222 8.63752 13.3761 8.79168L16.9016 12.3155L7.38923 12.3155Z" fill="white"/>
</svg>
