<svg width="27" height="27" viewBox="0 0 27 27" fill="none" xmlns="http://www.w3.org/2000/svg">
<path opacity="0.4" fill-rule="evenodd" clip-rule="evenodd" d="M13.1365 24.6309C10.0881 24.6309 7.16442 23.4199 5.00881 21.2643C2.8532 19.1087 1.64219 16.185 1.64219 13.1365C1.64219 10.0881 2.8532 7.16442 5.00881 5.00881C7.16442 2.8532 10.0881 1.64219 13.1365 1.64219C16.185 1.64219 19.1087 2.8532 21.2643 5.00881C23.4199 7.16442 24.6309 10.0881 24.6309 13.1365C24.6309 16.185 23.4199 19.1087 21.2643 21.2643C19.1087 23.4199 16.185 24.6309 13.1365 24.6309ZM13.1365 0.000144384C9.65255 0.000144232 6.31126 1.38415 3.8477 3.84771C1.38415 6.31126 0.00014187 9.65256 0.000141718 13.1365C0.000141566 16.6205 1.38415 19.9618 3.8477 22.4254C6.31126 24.8889 9.65255 26.2729 13.1365 26.2729C16.6205 26.2729 19.9618 24.8889 22.4254 22.4254C24.8889 19.9618 26.2729 16.6205 26.2729 13.1365C26.2729 9.65256 24.8889 6.31126 22.4254 3.84771C19.9618 1.38415 16.6205 0.000144537 13.1365 0.000144384ZM18.8837 12.3155C19.1015 12.3155 19.3103 12.402 19.4643 12.556C19.6182 12.71 19.7047 12.9188 19.7047 13.1365C19.7047 13.3543 19.6182 13.5631 19.4643 13.7171C19.3103 13.8711 19.1015 13.9576 18.8837 13.9576L9.37132 13.9576L12.8968 17.4814C13.051 17.6356 13.1376 17.8447 13.1376 18.0627C13.1376 18.2807 13.051 18.4898 12.8968 18.644C12.7426 18.7981 12.5335 18.8848 12.3155 18.8848C12.0975 18.8848 11.8884 18.7981 11.7342 18.644L6.80808 13.7178C6.73162 13.6416 6.67096 13.551 6.62957 13.4512C6.58818 13.3515 6.56688 13.2445 6.56688 13.1365C6.56688 13.0286 6.58818 12.9216 6.62957 12.8219C6.67096 12.7221 6.73162 12.6315 6.80808 12.5553L11.7342 7.62911C11.8884 7.47494 12.0975 7.38833 12.3155 7.38833C12.5335 7.38833 12.7426 7.47494 12.8968 7.62911C13.051 7.78328 13.1376 7.99237 13.1376 8.2104C13.1376 8.42842 13.051 8.63752 12.8968 8.79168L9.37132 12.3155L18.8837 12.3155Z" fill="white"/>
</svg>
