<svg width="8" height="12" viewBox="0 0 8 12" fill="none" xmlns="http://www.w3.org/2000/svg">
<path d="M0.000195324 11.744V10.064L4.9282 5.67201C5.3122 5.33068 5.57886 5.00801 5.7282 4.70401C5.87753 4.40001 5.9522 4.10668 5.9522 3.82401C5.9522 3.44001 5.86953 3.09868 5.7042 2.80001C5.53886 2.49601 5.30953 2.25601 5.0162 2.08001C4.7282 1.90401 4.39486 1.81601 4.0162 1.81601C3.6162 1.81601 3.26153 1.90934 2.9522 2.09601C2.6482 2.27734 2.41086 2.52001 2.2402 2.82401C2.06953 3.12801 1.98953 3.45601 2.0002 3.80801H0.0161954C0.0161954 3.04001 0.186862 2.37068 0.528195 1.80001C0.874862 1.22934 1.34953 0.786676 1.9522 0.47201C2.5602 0.157343 3.26153 9.53674e-06 4.0562 9.53674e-06C4.7922 9.53674e-06 5.45353 0.165343 6.0402 0.496009C6.62686 0.821342 7.0882 1.27468 7.4242 1.85601C7.7602 2.43201 7.9282 3.09601 7.9282 3.84801C7.9282 4.39734 7.85353 4.85868 7.7042 5.23201C7.55486 5.60534 7.33086 5.94934 7.0322 6.26401C6.73886 6.57868 6.37353 6.92801 5.9362 7.31201L2.4402 10.408L2.2642 9.92801H7.9282V11.744H0.000195324Z" fill="#77BE1D"/>
</svg>
