<svg width="245" height="21" viewBox="0 0 245 21" fill="none" xmlns="http://www.w3.org/2000/svg">
<path d="M1.12 17V5.48H5.776C5.888 5.48 6.02667 5.48533 6.192 5.496C6.35733 5.50133 6.51467 5.51733 6.664 5.544C7.304 5.64533 7.83733 5.864 8.264 6.2C8.696 6.536 9.01867 6.96 9.232 7.472C9.44533 7.984 9.552 8.54933 9.552 9.168C9.552 10.0853 9.31733 10.8773 8.848 11.544C8.37867 12.2053 7.67467 12.6187 6.736 12.784L6.056 12.864H2.792V17H1.12ZM7.856 17L5.584 12.312L7.272 11.88L9.768 17H7.856ZM2.792 11.28H5.712C5.81867 11.28 5.936 11.2747 6.064 11.264C6.19733 11.2533 6.32267 11.2347 6.44 11.208C6.78133 11.128 7.056 10.9813 7.264 10.768C7.472 10.5493 7.62133 10.2987 7.712 10.016C7.80267 9.73333 7.848 9.45067 7.848 9.168C7.848 8.88533 7.80267 8.60533 7.712 8.328C7.62133 8.04533 7.472 7.79733 7.264 7.584C7.056 7.36533 6.78133 7.216 6.44 7.136C6.32267 7.104 6.19733 7.08267 6.064 7.072C5.936 7.06133 5.81867 7.056 5.712 7.056H2.792V11.28ZM16.1183 17.24C15.2169 17.24 14.4196 17.056 13.7263 16.688C13.0383 16.3147 12.4996 15.7947 12.1103 15.128C11.7209 14.456 11.5263 13.6667 11.5263 12.76V5.488L13.2223 5.48V12.672C13.2223 13.1627 13.3049 13.5947 13.4703 13.968C13.6356 14.3413 13.8569 14.6533 14.1343 14.904C14.4116 15.1547 14.7209 15.344 15.0623 15.472C15.4089 15.6 15.7609 15.664 16.1183 15.664C16.4809 15.664 16.8329 15.6 17.1743 15.472C17.5209 15.3387 17.8329 15.1467 18.1103 14.896C18.3876 14.6453 18.6063 14.3333 18.7663 13.96C18.9316 13.5867 19.0143 13.1573 19.0143 12.672V5.48H20.7103V12.76C20.7103 13.6613 20.5156 14.448 20.1263 15.12C19.7369 15.792 19.1956 16.3147 18.5023 16.688C17.8143 17.056 17.0196 17.24 16.1183 17.24ZM32.6596 18.592V16.72H34.3316V18.592H32.6596ZM32.6596 5.768V3.888H34.3316V5.768H32.6596ZM33.5796 17.24C32.7796 17.24 32.065 17.096 31.4356 16.808C30.8063 16.52 30.289 16.112 29.8836 15.584C29.4836 15.0507 29.2223 14.4213 29.0996 13.696L30.7556 13.432C30.9156 14.1147 31.257 14.6587 31.7796 15.064C32.3023 15.464 32.929 15.664 33.6596 15.664C34.385 15.664 34.9743 15.4907 35.4276 15.144C35.8863 14.7973 36.1156 14.3547 36.1156 13.816C36.1156 13.432 35.9983 13.12 35.7636 12.88C35.5343 12.64 35.1583 12.4373 34.6356 12.272L31.9316 11.44C30.3316 10.944 29.5316 9.984 29.5316 8.56C29.5316 7.888 29.6916 7.304 30.0116 6.808C30.337 6.312 30.793 5.928 31.3796 5.656C31.9663 5.384 32.6516 5.248 33.4356 5.248C34.1876 5.25867 34.8543 5.39733 35.4356 5.664C36.0223 5.93067 36.5076 6.31467 36.8916 6.816C37.281 7.31733 37.5503 7.92 37.6996 8.624L35.9956 8.928C35.921 8.51733 35.7636 8.15467 35.5236 7.84C35.289 7.52533 34.9903 7.28 34.6276 7.104C34.2703 6.928 33.8676 6.83733 33.4196 6.832C32.9983 6.82133 32.6196 6.888 32.2836 7.032C31.953 7.17067 31.689 7.368 31.4916 7.624C31.2996 7.87467 31.2036 8.16 31.2036 8.48C31.2036 8.832 31.3396 9.13067 31.6116 9.376C31.8836 9.62133 32.313 9.832 32.8996 10.008L35.0196 10.624C35.9903 10.912 36.6916 11.2987 37.1236 11.784C37.5556 12.2693 37.7716 12.9147 37.7716 13.72C37.7716 14.424 37.5956 15.04 37.2436 15.568C36.897 16.0907 36.409 16.5013 35.7796 16.8C35.1503 17.0933 34.417 17.24 33.5796 17.24Z" fill="white"/>
<path d="M25.8601 5.48H27.5481L24.4761 17H22.7881L25.8601 5.48Z" fill="#3C364E"/>
<path fill-rule="evenodd" clip-rule="evenodd" d="M48 10.4055L45.2543 8L44 9.49568L48 13L52 9.49568L50.7457 8L48 10.4055Z" fill="#77BE1D"/>
<path d="M147.046 4.00802C145.815 3.43411 144.482 3.01757 143.093 2.7769C143.081 2.77651 143.069 2.77879 143.058 2.78359C143.047 2.78839 143.037 2.79558 143.028 2.80467C142.862 3.11013 142.667 3.50817 142.538 3.81363C141.065 3.59147 139.567 3.59147 138.095 3.81363C137.965 3.49891 137.771 3.11013 137.595 2.80467C137.586 2.78615 137.558 2.7769 137.53 2.7769C136.142 3.01757 134.818 3.43411 133.578 4.00802C133.568 4.00802 133.559 4.01728 133.55 4.02653C131.032 7.79395 130.338 11.4595 130.68 15.0881C130.68 15.1066 130.689 15.1251 130.708 15.1344C132.374 16.3563 133.976 17.0968 135.558 17.5874C135.586 17.5966 135.614 17.5874 135.623 17.5689C135.994 17.0597 136.327 16.5229 136.614 15.9582C136.632 15.9212 136.614 15.8842 136.577 15.8749C136.049 15.6713 135.549 15.4306 135.059 15.1529C135.022 15.1344 135.022 15.0788 135.049 15.0511C135.151 14.977 135.253 14.8937 135.355 14.8197C135.373 14.8012 135.401 14.8012 135.42 14.8104C138.604 16.2637 142.038 16.2637 145.185 14.8104C145.204 14.8012 145.232 14.8012 145.25 14.8197C145.352 14.903 145.454 14.977 145.556 15.0603C145.593 15.0881 145.593 15.1436 145.546 15.1622C145.065 15.4491 144.556 15.6805 144.028 15.8842C143.991 15.8934 143.982 15.9397 143.991 15.9675C144.287 16.5321 144.621 17.069 144.982 17.5781C145.009 17.5874 145.037 17.5966 145.065 17.5874C146.657 17.0968 148.258 16.3563 149.925 15.1344C149.943 15.1251 149.952 15.1066 149.952 15.0881C150.36 10.8949 149.277 7.25707 147.083 4.02653C147.074 4.01728 147.064 4.00802 147.046 4.00802ZM137.095 12.8758C136.142 12.8758 135.346 11.9964 135.346 10.9134C135.346 9.83039 136.123 8.95101 137.095 8.95101C138.076 8.95101 138.854 9.83964 138.845 10.9134C138.845 11.9964 138.067 12.8758 137.095 12.8758ZM143.547 12.8758C142.593 12.8758 141.797 11.9964 141.797 10.9134C141.797 9.83039 142.575 8.95101 143.547 8.95101C144.528 8.95101 145.306 9.83964 145.296 10.9134C145.296 11.9964 144.528 12.8758 143.547 12.8758Z" fill="#77BE1D"/>
<path fill-rule="evenodd" clip-rule="evenodd" d="M103.707 4.58016C103.86 4.07475 103.707 3.70264 102.971 3.70264H100.541C99.9225 3.70264 99.6374 4.02384 99.4828 4.37836C99.4828 4.37836 98.2471 7.33676 96.4967 9.25842C95.9302 9.81566 95.6728 9.99246 95.3637 9.99246C95.2091 9.99246 94.9768 9.81566 94.9768 9.30933V4.58016C94.9768 3.97293 94.8064 3.70264 94.2918 3.70264H90.4707C90.0847 3.70264 89.8523 3.98404 89.8523 4.25155C89.8523 4.82638 90.728 4.95968 90.8178 6.57772V10.0934C90.8178 10.8644 90.6762 11.0042 90.367 11.0042C89.5432 11.0042 87.5391 8.03192 86.3497 4.63107C86.1192 3.96923 85.8859 3.70264 85.2648 3.70264H82.8331C82.1388 3.70264 82 4.02384 82 4.37836C82 5.00966 82.8238 8.14578 85.8368 12.2936C87.8455 15.1261 90.6734 16.6618 93.2495 16.6618C94.7944 16.6618 94.9851 16.3212 94.9851 15.7334V13.5923C94.9851 12.9101 95.1313 12.7741 95.621 12.7741C95.982 12.7741 96.5994 12.9518 98.0416 14.3171C99.6893 15.9361 99.9605 16.6618 100.888 16.6618H103.318C104.012 16.6618 104.36 16.3212 104.16 15.6473C103.94 14.9771 103.153 14.0042 102.11 12.85C101.543 12.1927 100.694 11.4846 100.435 11.1301C100.075 10.6756 100.178 10.4729 100.435 10.0684C100.435 10.0684 103.397 5.97142 103.706 4.58016H103.707Z" fill="white" fill-opacity="0.15"/>
<path d="M198.302 3.64441C197.529 3.98691 196.699 4.21832 195.826 4.32292C196.727 3.784 197.4 2.93579 197.722 1.93658C196.876 2.4392 195.949 2.79299 194.984 2.98257C194.334 2.28913 193.474 1.82951 192.536 1.67506C191.599 1.52061 190.637 1.67998 189.799 2.12843C188.962 2.57687 188.296 3.2893 187.904 4.1551C187.513 5.0209 187.419 5.99164 187.636 6.9166C185.921 6.83051 184.244 6.38486 182.713 5.60857C181.181 4.83227 179.831 3.74268 178.748 2.41052C178.377 3.04922 178.164 3.78974 178.164 4.5784C178.164 5.28837 178.339 5.98747 178.673 6.61367C179.008 7.23986 179.492 7.77379 180.082 8.16809C179.398 8.1463 178.728 7.96128 178.129 7.62843V7.68397C178.129 8.67974 178.474 9.64486 179.104 10.4156C179.735 11.1863 180.612 11.7151 181.588 11.9124C180.953 12.0843 180.287 12.1096 179.641 11.9864C179.916 12.8432 180.453 13.5924 181.175 14.1292C181.897 14.666 182.77 14.9635 183.669 14.98C182.142 16.1791 180.255 16.8295 178.314 16.8267C177.97 16.8268 177.626 16.8067 177.284 16.7665C179.255 18.0339 181.55 18.7065 183.893 18.7039C191.826 18.7039 196.163 12.1336 196.163 6.43526C196.163 6.25013 196.158 6.06315 196.15 5.87802C196.993 5.26799 197.722 4.51258 198.3 3.64719L198.302 3.64441Z" fill="white" fill-opacity="0.15"/>
<path fill-rule="evenodd" clip-rule="evenodd" d="M230.535 0.0610932C231.621 0.0111078 231.967 0 234.733 0C237.499 0 237.845 0.0120335 238.93 0.0610932C240.015 0.110153 240.755 0.28325 241.403 0.534103C242.082 0.790509 242.697 1.19132 243.206 1.70968C243.725 2.21787 244.125 2.8325 244.38 3.51193C244.632 4.15989 244.804 4.90042 244.854 5.98343C244.904 7.07108 244.915 7.41727 244.915 10.1822C244.915 12.9481 244.903 13.2943 244.854 14.38C244.805 15.4631 244.632 16.2036 244.38 16.8515C244.125 17.5311 243.724 18.1467 243.206 18.6556C242.697 19.174 242.082 19.5739 241.403 19.8294C240.755 20.0812 240.015 20.2533 238.932 20.3033C237.845 20.3533 237.499 20.3644 234.733 20.3644C231.967 20.3644 231.621 20.3524 230.535 20.3033C229.452 20.2542 228.712 20.0812 228.064 19.8294C227.384 19.5739 226.768 19.1733 226.26 18.6556C225.742 18.1472 225.341 17.5318 225.085 16.8525C224.834 16.2045 224.662 15.464 224.612 14.381C224.562 13.2933 224.551 12.9471 224.551 10.1822C224.551 7.41635 224.563 7.07015 224.612 5.98528C224.661 4.90042 224.834 4.15989 225.085 3.51193C225.341 2.83258 225.742 2.21723 226.26 1.70876C226.769 1.19086 227.384 0.789994 228.063 0.534103C228.711 0.28325 229.451 0.111079 230.534 0.0610932H230.535ZM238.848 1.89389C237.774 1.84483 237.452 1.83465 234.733 1.83465C232.014 1.83465 231.692 1.84483 230.618 1.89389C229.625 1.93925 229.086 2.10494 228.727 2.24471C228.252 2.42984 227.913 2.64922 227.556 3.0056C227.219 3.33426 226.959 3.73435 226.795 4.17655C226.656 4.53571 226.49 5.07444 226.445 6.06767C226.396 7.14143 226.385 7.46355 226.385 10.1822C226.385 12.9008 226.396 13.223 226.445 14.2967C226.49 15.29 226.656 15.8287 226.795 16.1878C226.958 16.6294 227.219 17.0302 227.556 17.3588C227.885 17.6967 228.286 17.9568 228.727 18.1197C229.086 18.2595 229.625 18.4252 230.618 18.4705C231.692 18.5196 232.013 18.5298 234.733 18.5298C237.453 18.5298 237.774 18.5196 238.848 18.4705C239.841 18.4252 240.379 18.2595 240.739 18.1197C241.213 17.9346 241.553 17.7152 241.91 17.3588C242.247 17.0302 242.508 16.6294 242.67 16.1878C242.81 15.8287 242.976 15.29 243.021 14.2967C243.07 13.223 243.081 12.9008 243.081 10.1822C243.081 7.46355 243.07 7.14143 243.021 6.06767C242.976 5.07444 242.81 4.53571 242.67 4.17655C242.485 3.70169 242.266 3.36198 241.91 3.0056C241.581 2.6678 241.181 2.40782 240.739 2.24471C240.379 2.10494 239.841 1.93925 238.848 1.89389ZM233.432 13.3211C234.159 13.6234 234.968 13.6643 235.721 13.4365C236.474 13.2088 237.124 12.7267 237.561 12.0726C237.999 11.4185 238.195 10.6329 238.117 9.84999C238.039 9.0671 237.692 8.33549 237.135 7.78013C236.78 7.42512 236.35 7.15329 235.877 6.9842C235.405 6.81512 234.9 6.75298 234.4 6.80228C233.9 6.85158 233.418 7.01107 232.987 7.26929C232.556 7.5275 232.188 7.87801 231.909 8.29558C231.63 8.71315 231.447 9.18739 231.373 9.68416C231.3 10.1809 231.337 10.6879 231.483 11.1685C231.628 11.6491 231.879 12.0915 232.216 12.4637C232.553 12.8359 232.969 13.1287 233.432 13.3211ZM231.032 6.48143C231.518 5.99544 232.095 5.60993 232.73 5.34692C233.365 5.0839 234.046 4.94853 234.733 4.94853C235.42 4.94853 236.101 5.0839 236.736 5.34692C237.371 5.60993 237.948 5.99544 238.434 6.48143C238.92 6.96743 239.305 7.54438 239.568 8.17936C239.831 8.81434 239.967 9.49491 239.967 10.1822C239.967 10.8695 239.831 11.5501 239.568 12.185C239.305 12.82 238.92 13.397 238.434 13.883C237.452 14.8645 236.121 15.4159 234.733 15.4159C233.345 15.4159 232.014 14.8645 231.032 13.883C230.051 12.9015 229.499 11.5703 229.499 10.1822C229.499 8.79414 230.051 7.46294 231.032 6.48143ZM241.127 5.72795C241.248 5.61434 241.344 5.47773 241.411 5.32619C241.478 5.17466 241.513 5.01128 241.516 4.84574C241.518 4.68019 241.487 4.51585 241.425 4.36243C241.363 4.20902 241.27 4.06965 241.153 3.95258C241.036 3.83551 240.897 3.74312 240.743 3.68088C240.59 3.61864 240.426 3.58782 240.26 3.59023C240.095 3.59264 239.931 3.62825 239.78 3.69493C239.628 3.76162 239.492 3.85803 239.378 3.97846C239.157 4.21268 239.036 4.52379 239.041 4.84574C239.045 5.16769 239.175 5.47514 239.403 5.70281C239.631 5.93049 239.938 6.06047 240.26 6.06517C240.582 6.06986 240.893 5.94889 241.127 5.72795Z" fill="white" fill-opacity="0.15"/>
</svg>
