<svg width="44" height="29" viewBox="0 0 44 29" fill="none" xmlns="http://www.w3.org/2000/svg">
<path fill-rule="evenodd" clip-rule="evenodd" d="M3.66535 0C1.64103 0 0 1.60287 0 3.58011V25.0608C0 27.038 1.64103 28.6409 3.66535 28.6409H40.3189C42.3432 28.6409 43.9842 27.038 43.9842 25.0608V3.58011C43.9842 1.60287 42.3432 0 40.3189 0H3.66535ZM24.0638 22.5703L19.7079 17.8487L20.9297 16.811L17.8486 13.4903L19.0704 12.4526L15.9894 9.13188L20.8234 4.92914L22.3639 6.53759L25.02 4.30651L26.5605 5.86308L27.5698 4.98102C27.4636 4.92914 27.344 4.86429 27.2245 4.79944C27.105 4.73459 26.9854 4.66971 26.8792 4.61782C25.3387 3.9952 23.6919 3.58011 21.939 3.58011C15.83 3.58011 10.8367 8.40548 10.8367 14.3204C10.8367 20.2354 15.83 25.0608 21.9921 25.0608C24.0107 25.0608 25.8699 24.5419 27.4635 23.6599C27.9947 23.3486 28.4727 23.0373 28.9508 22.726L26.7198 20.2873L24.0638 22.5703ZM18.008 9.28753L20.3984 11.8299L23.0545 9.54696L20.6641 7.00456L18.008 9.28753ZM24.9669 13.9054L22.5764 11.363L19.9204 13.6459L22.3108 16.2402L24.9669 13.9054ZM24.4356 15.7732L26.8261 18.3156L24.17 20.6505L21.7796 18.1081L24.4356 15.7732ZM24.6481 9.96205L22.8951 8.04228L24.8606 6.33005L26.6667 8.24982L24.6481 9.96205ZM28.4728 12.0894L26.6667 10.1696L24.7013 11.9337L26.5074 13.8016L28.4728 12.0894ZM28.3666 14.2167L30.1727 16.1364L28.2072 17.9006L26.4011 15.9289L28.3666 14.2167ZM30.279 9.80639L28.9509 10.9479L30.1727 12.245L31.4476 11.1035L30.279 9.80639ZM31.8195 16.0327L30.6508 14.7355L31.9257 13.594L33.1475 14.8912L31.8195 16.0327ZM27.2511 7.16022L28.4728 8.45736L29.7477 7.31588L28.5791 6.01874L27.2511 7.16022ZM29.9602 21.7401L28.1541 19.8203L30.1196 18.1081L31.9257 20.0279L29.9602 21.7401Z" fill="#137ABE"/>
</svg>
