<svg width="21" height="21" viewBox="0 0 21 21" fill="none" xmlns="http://www.w3.org/2000/svg">
<path fill-rule="evenodd" clip-rule="evenodd" d="M5.98436 0.0610932C7.07015 0.0111078 7.41635 0 10.1822 0C12.9481 0 13.2943 0.0120335 14.3791 0.0610932C15.464 0.110153 16.2045 0.28325 16.8525 0.534103C17.531 0.790509 18.1465 1.19132 18.6556 1.70968C19.174 2.21787 19.5739 2.8325 19.8294 3.51193C20.0812 4.15989 20.2533 4.90042 20.3033 5.98343C20.3533 7.07108 20.3644 7.41727 20.3644 10.1822C20.3644 12.9481 20.3524 13.2943 20.3033 14.38C20.2542 15.4631 20.0812 16.2036 19.8294 16.8515C19.5739 17.5311 19.1733 18.1467 18.6556 18.6556C18.1465 19.174 17.531 19.5739 16.8525 19.8294C16.2045 20.0812 15.464 20.2533 14.381 20.3033C13.2943 20.3533 12.9481 20.3644 10.1822 20.3644C7.41635 20.3644 7.07015 20.3524 5.98436 20.3033C4.90134 20.2542 4.16082 20.0812 3.51286 19.8294C2.83336 19.5739 2.2177 19.1733 1.70876 18.6556C1.19074 18.1472 0.789875 17.5318 0.534103 16.8525C0.28325 16.2045 0.111079 15.464 0.0610932 14.381C0.0111078 13.2933 0 12.9471 0 10.1822C0 7.41635 0.0120335 7.07015 0.0610932 5.98528C0.110153 4.90042 0.28325 4.15989 0.534103 3.51193C0.790253 2.83258 1.19143 2.21723 1.70968 1.70876C2.21791 1.19086 2.83294 0.789994 3.51193 0.534103C4.15989 0.28325 4.90042 0.111079 5.98343 0.0610932H5.98436ZM14.2967 1.89389C13.223 1.84483 12.9008 1.83465 10.1822 1.83465C7.46355 1.83465 7.14143 1.84483 6.06767 1.89389C5.07444 1.93925 4.53571 2.10494 4.17655 2.24471C3.70169 2.42984 3.36198 2.64922 3.0056 3.0056C2.66778 3.33426 2.40779 3.73435 2.24471 4.17655C2.10494 4.53571 1.93925 5.07444 1.89389 6.06767C1.84483 7.14143 1.83465 7.46355 1.83465 10.1822C1.83465 12.9008 1.84483 13.223 1.89389 14.2967C1.93925 15.29 2.10494 15.8287 2.24471 16.1878C2.40763 16.6294 2.66774 17.0302 3.0056 17.3588C3.33421 17.6967 3.73502 17.9568 4.17655 18.1197C4.53571 18.2595 5.07444 18.4252 6.06767 18.4705C7.14143 18.5196 7.46263 18.5298 10.1822 18.5298C12.9018 18.5298 13.223 18.5196 14.2967 18.4705C15.29 18.4252 15.8287 18.2595 16.1878 18.1197C16.6627 17.9346 17.0024 17.7152 17.3588 17.3588C17.6967 17.0302 17.9568 16.6294 18.1197 16.1878C18.2595 15.8287 18.4252 15.29 18.4705 14.2967C18.5196 13.223 18.5298 12.9008 18.5298 10.1822C18.5298 7.46355 18.5196 7.14143 18.4705 6.06767C18.4252 5.07444 18.2595 4.53571 18.1197 4.17655C17.9346 3.70169 17.7152 3.36198 17.3588 3.0056C17.0301 2.6678 16.63 2.40782 16.1878 2.24471C15.8287 2.10494 15.29 1.93925 14.2967 1.89389ZM8.88166 13.3211C9.60798 13.6234 10.4167 13.6643 11.1698 13.4365C11.9229 13.2088 12.5735 12.7267 13.0106 12.0726C13.4478 11.4185 13.6442 10.6329 13.5664 9.84999C13.4887 9.0671 13.1415 8.33549 12.5843 7.78013C12.229 7.42512 11.7995 7.15329 11.3266 6.9842C10.8537 6.81512 10.3492 6.75298 9.84942 6.80228C9.34963 6.85158 8.86699 7.01107 8.43623 7.26929C8.00548 7.5275 7.63734 7.87801 7.35831 8.29558C7.07928 8.71315 6.8963 9.18739 6.82255 9.68416C6.7488 10.1809 6.78611 10.6879 6.9318 11.1685C7.07749 11.6491 7.32793 12.0915 7.66509 12.4637C8.00225 12.8359 8.41774 13.1287 8.88166 13.3211ZM6.48143 6.48143C6.96743 5.99544 7.54438 5.60993 8.17936 5.34692C8.81434 5.0839 9.49491 4.94853 10.1822 4.94853C10.8695 4.94853 11.5501 5.0839 12.185 5.34692C12.82 5.60993 13.397 5.99544 13.883 6.48143C14.369 6.96743 14.7545 7.54438 15.0175 8.17936C15.2805 8.81434 15.4159 9.49491 15.4159 10.1822C15.4159 10.8695 15.2805 11.5501 15.0175 12.185C14.7545 12.82 14.369 13.397 13.883 13.883C12.9015 14.8645 11.5703 15.4159 10.1822 15.4159C8.79414 15.4159 7.46294 14.8645 6.48143 13.883C5.49993 12.9015 4.94853 11.5703 4.94853 10.1822C4.94853 8.79414 5.49993 7.46294 6.48143 6.48143ZM16.5766 5.72795C16.6971 5.61434 16.7935 5.47773 16.8602 5.32619C16.9268 5.17466 16.9624 5.01128 16.9649 4.84574C16.9673 4.68019 16.9364 4.51585 16.8742 4.36243C16.812 4.20902 16.7196 4.06965 16.6025 3.95258C16.4854 3.83551 16.3461 3.74312 16.1927 3.68088C16.0392 3.61864 15.8749 3.58782 15.7093 3.59023C15.5438 3.59264 15.3804 3.62825 15.2289 3.69493C15.0774 3.76162 14.9407 3.85803 14.8271 3.97846C14.6062 4.21268 14.4852 4.52379 14.4899 4.84574C14.4946 5.16769 14.6246 5.47514 14.8523 5.70281C15.08 5.93049 15.3874 6.06047 15.7093 6.06517C16.0313 6.06986 16.3424 5.94889 16.5766 5.72795Z" fill="white" fill-opacity="0.15"/>
</svg>
