<svg width="22" height="18" viewBox="0 0 22 18" fill="none" xmlns="http://www.w3.org/2000/svg">
<path d="M21.0179 2.02674C20.245 2.36923 19.4147 2.60064 18.5418 2.70524C19.4425 2.16632 20.1163 1.31812 20.4375 0.318905C19.5913 0.821526 18.6652 1.17532 17.6994 1.36489C17.05 0.671455 16.1898 0.211831 15.2523 0.0573836C14.3149 -0.0970639 13.3527 0.0623057 12.5151 0.51075C11.6775 0.959193 11.0114 1.67162 10.6202 2.53743C10.229 3.40323 10.1346 4.37397 10.3516 5.29893C8.63699 5.21284 6.95965 4.76718 5.42843 3.99089C3.89721 3.21459 2.54633 2.12501 1.46346 0.79284C1.0932 1.43154 0.880298 2.17207 0.880298 2.96072C0.879885 3.6707 1.05472 4.36979 1.3893 4.99599C1.72387 5.62219 2.20784 6.15612 2.79825 6.55041C2.11353 6.52863 1.4439 6.34361 0.845123 6.01076V6.06629C0.845054 7.06206 1.1895 8.02718 1.82001 8.7979C2.45052 9.56862 3.32826 10.0975 4.30429 10.2947C3.6691 10.4666 3.00314 10.4919 2.35672 10.3687C2.6321 11.2255 3.16851 11.9748 3.89087 12.5116C4.61322 13.0483 5.48535 13.3458 6.38517 13.3623C4.85768 14.5614 2.97125 15.2118 1.02933 15.209C0.685337 15.2091 0.341637 15.189 0 15.1488C1.97116 16.4162 4.26573 17.0888 6.60917 17.0862C14.542 17.0862 18.8787 10.5159 18.8787 4.81759C18.8787 4.63246 18.8741 4.44547 18.8658 4.26034C19.7093 3.65031 20.4374 2.89491 21.0161 2.02952L21.0179 2.02674Z" fill="white" fill-opacity="0.15"/>
</svg>
