<svg width="20" height="15" viewBox="0 0 20 15" fill="none" xmlns="http://www.w3.org/2000/svg">
<path d="M16.4472 1.23116C15.2161 0.657257 13.8831 0.240713 12.4946 4.25784e-05C12.4825 -0.000346755 12.4704 0.00193784 12.4592 0.00673576C12.448 0.0115337 12.438 0.0187284 12.4298 0.0278124C12.2632 0.333278 12.0688 0.73131 11.9392 1.03678C10.4665 0.814619 8.96882 0.814619 7.4961 1.03678C7.36651 0.722053 7.17212 0.333278 6.99625 0.0278124C6.98699 0.00929932 6.95922 4.25784e-05 6.93145 4.25784e-05C5.54297 0.240713 4.21929 0.657257 2.97891 1.23116C2.96965 1.23116 2.9604 1.24042 2.95114 1.24968C0.433358 5.01709 -0.260883 8.68268 0.0816095 12.3112C0.0816095 12.3298 0.090866 12.3483 0.109379 12.3575C1.77556 13.5794 3.37694 14.3199 4.95981 14.8105C4.98758 14.8198 5.01535 14.8105 5.02461 14.792C5.39487 14.2829 5.7281 13.746 6.01506 13.1814C6.03357 13.1443 6.01506 13.1073 5.97803 13.0981C5.45041 12.8944 4.95055 12.6537 4.45996 12.376C4.42293 12.3575 4.42293 12.302 4.4507 12.2742C4.55252 12.2002 4.65434 12.1169 4.75617 12.0428C4.77468 12.0243 4.80245 12.0243 4.82096 12.0336C8.00521 13.4868 11.4394 13.4868 14.5866 12.0336C14.6051 12.0243 14.6329 12.0243 14.6514 12.0428C14.7532 12.1261 14.8551 12.2002 14.9569 12.2835C14.9939 12.3112 14.9939 12.3668 14.9476 12.3853C14.4663 12.6723 13.9572 12.9037 13.4296 13.1073C13.3925 13.1166 13.3833 13.1629 13.3925 13.1906C13.6887 13.7553 14.022 14.2921 14.383 14.8013C14.4107 14.8105 14.4385 14.8198 14.4663 14.8105C16.0584 14.3199 17.6598 13.5794 19.326 12.3575C19.3445 12.3483 19.3537 12.3298 19.3537 12.3112C19.761 8.11803 18.678 4.48021 16.4842 1.24968C16.475 1.24042 16.4657 1.23116 16.4472 1.23116ZM6.4964 10.0989C5.54297 10.0989 4.74691 9.21956 4.74691 8.13655C4.74691 7.05353 5.52446 6.17416 6.4964 6.17416C7.47759 6.17416 8.25514 7.06279 8.24588 8.13655C8.24588 9.21956 7.46833 10.0989 6.4964 10.0989ZM12.9482 10.0989C11.9948 10.0989 11.1987 9.21956 11.1987 8.13655C11.1987 7.05353 11.9763 6.17416 12.9482 6.17416C13.9294 6.17416 14.707 7.06279 14.6977 8.13655C14.6977 9.21956 13.9294 10.0989 12.9482 10.0989Z" fill="#77BE1D"/>
</svg>
