<svg width="73" height="73" viewBox="0 0 73 73" fill="none" xmlns="http://www.w3.org/2000/svg">
<rect width="73" height="73" rx="15" fill="#4885FC" fill-opacity="0.1"/>
<path d="M37.3846 29.875V22H31.1923C30.4885 22 29.8134 22.2766 29.3158 22.7688C28.8181 23.2611 28.5385 23.9288 28.5385 24.625V43.875C28.5385 44.5712 28.8181 45.2389 29.3158 45.7312C29.8134 46.2234 30.4885 46.5 31.1923 46.5H45.3462C46.05 46.5 46.725 46.2234 47.2227 45.7312C47.7204 45.2389 48 44.5712 48 43.875V32.5H40.0385C39.3346 32.5 38.6596 32.2234 38.1619 31.7312C37.6642 31.2389 37.3846 30.5712 37.3846 29.875ZM39.1538 29.875V22.4375L47.5577 30.75H40.0385C39.8038 30.75 39.5788 30.6578 39.4129 30.4937C39.247 30.3296 39.1538 30.1071 39.1538 29.875ZM25 27.25C25 26.7859 25.1864 26.3408 25.5182 26.0126C25.85 25.6844 26.3 25.5 26.7692 25.5V43.875C26.7692 45.0353 27.2352 46.1481 28.0647 46.9686C28.8942 47.7891 30.0192 48.25 31.1923 48.25H44.4615C44.4615 48.7141 44.2751 49.1593 43.9433 49.4874C43.6115 49.8156 43.1615 50 42.6923 50H31.2772C29.6124 50 28.0158 49.3458 26.8386 48.1814C25.6613 47.017 25 45.4377 25 43.791V27.25Z" fill="#4277FF"/>
</svg>
