<svg width="69" height="92" viewBox="0 0 69 92" fill="none" xmlns="http://www.w3.org/2000/svg">
<path d="M66.7942 11.6935L35.4841 0.20828C35.1064 0.0694266 34.5996 0 34.0928 0C33.586 0 33.0792 0.0694266 32.7014 0.20828L1.39135 11.6935C0.626571 11.9712 0 12.9233 0 13.7961V61.6411C0 62.5139 0.525214 63.6644 1.161 64.2099L32.9226 90.8499C33.2451 91.1177 33.6597 91.2565 34.0836 91.2565C34.5074 91.2565 34.9313 91.1177 35.2446 90.8499L67.0061 64.2099C67.6419 63.6743 68.1671 62.5238 68.1671 61.6411V13.7961C68.1856 12.9233 67.559 11.9811 66.7942 11.6935ZM50.9088 28.6336L31.3193 57.6639C31.1816 57.8668 31.0013 58.0318 30.7932 58.1456C30.585 58.2594 30.3549 58.3187 30.1214 58.3187C29.888 58.3187 29.6578 58.2594 29.4497 58.1456C29.2416 58.0318 29.0613 57.8668 28.9236 57.6639L17.2768 40.4064C16.9266 39.8807 17.2768 39.1468 17.8757 39.1468H22.962C23.4319 39.1468 23.8834 39.3947 24.1598 39.8014L30.1214 48.6285L44.0258 28.0187C44.3022 27.612 44.7445 27.3641 45.2236 27.3641H50.3099C50.9088 27.374 51.259 28.1079 50.9088 28.6336Z" fill="#77BE1D"/>
</svg>
