<svg width="88" height="71" viewBox="0 0 88 71" fill="none" xmlns="http://www.w3.org/2000/svg">
<path d="M85.7592 48.377H83.5602V33.5203C83.5602 31.7749 82.8593 30.0982 81.6224 28.8613L67.8927 15.1315C66.6558 13.8946 64.9791 13.1937 63.2336 13.1937H57.1728V6.59686C57.1728 2.95484 54.2179 0 50.5759 0H15.3927C11.7507 0 8.79581 2.95484 8.79581 6.59686V13.1937H1.09948C0.494764 13.1937 0 13.6885 0 14.2932V16.4921C0 17.0969 0.494764 17.5916 1.09948 17.5916H38.4817C39.0864 17.5916 39.5812 18.0864 39.5812 18.6911V20.8901C39.5812 21.4948 39.0864 21.9895 38.4817 21.9895H5.49738C4.89267 21.9895 4.39791 22.4843 4.39791 23.089V25.288C4.39791 25.8927 4.89267 26.3874 5.49738 26.3874H34.0838C34.6885 26.3874 35.1832 26.8822 35.1832 27.4869V29.6859C35.1832 30.2906 34.6885 30.7853 34.0838 30.7853H1.09948C0.494764 30.7853 0 31.2801 0 31.8848V34.0838C0 34.6885 0.494764 35.1832 1.09948 35.1832H29.6859C30.2906 35.1832 30.7853 35.678 30.7853 36.2827V38.4817C30.7853 39.0864 30.2906 39.5812 29.6859 39.5812H8.79581V57.1728C8.79581 64.4568 14.7055 70.3665 21.9895 70.3665C29.2736 70.3665 35.1832 64.4568 35.1832 57.1728H52.7749C52.7749 64.4568 58.6846 70.3665 65.9686 70.3665C73.2526 70.3665 79.1623 64.4568 79.1623 57.1728H85.7592C86.9686 57.1728 87.9581 56.1832 87.9581 54.9738V50.5759C87.9581 49.3665 86.9686 48.377 85.7592 48.377ZM21.9895 63.7696C18.3475 63.7696 15.3927 60.8148 15.3927 57.1728C15.3927 53.5308 18.3475 50.5759 21.9895 50.5759C25.6315 50.5759 28.5864 53.5308 28.5864 57.1728C28.5864 60.8148 25.6315 63.7696 21.9895 63.7696ZM65.9686 63.7696C62.3266 63.7696 59.3717 60.8148 59.3717 57.1728C59.3717 53.5308 62.3266 50.5759 65.9686 50.5759C69.6106 50.5759 72.5654 53.5308 72.5654 57.1728C72.5654 60.8148 69.6106 63.7696 65.9686 63.7696ZM76.9633 35.1832H57.1728V19.7906H63.2336L76.9633 33.5203V35.1832Z" fill="#77BE1D"/>
</svg>
