<svg width="33" height="50" viewBox="0 0 33 50" fill="none" xmlns="http://www.w3.org/2000/svg">
<g clip-path="url(#clip0_4245_1079)">
<path d="M1.16406 5.97939V10.0148C1.16406 21.2305 1.18523 28.9762 7.68029 35.4972C10.1821 38.0102 16.29 42.1276 16.29 42.1276V2.23877C9.93708 2.23877 3.58421 5.08906 1.16406 5.97939Z" fill="#66BB6A"/>
<path d="M31.4169 5.92773C28.3917 4.98574 22.6439 2.23877 16.291 2.23877V42.1245C16.291 42.1245 22.4261 38.0102 24.9309 35.4941C31.4381 28.9579 31.4169 22.0935 31.4169 11.5098V5.92773Z" fill="#388E3C"/>
<path d="M32.7324 5.97412H0V8.67855H32.7324V5.97412Z" fill="url(#paint0_linear_4245_1079)"/>
<path fill-rule="evenodd" clip-rule="evenodd" d="M24.8225 28.2966C23.7351 27.2356 22.4525 26.3849 21.038 25.7963C19.5501 25.1773 17.9613 24.8671 16.3662 24.8752C15.6008 24.879 14.834 24.9561 14.0762 25.1076C11.7782 25.5667 9.66417 26.6887 7.99219 28.335C8.30183 28.816 8.64927 29.2859 9.03912 29.7461C9.53925 29.2306 10.0939 28.7664 10.6957 28.3625C12.3753 27.2352 14.3471 26.6283 16.3662 26.6164C16.3864 26.6162 16.4067 26.6162 16.4269 26.6162V26.6192C19.1613 26.6224 21.7829 27.7147 23.7167 29.6566C23.7318 29.6717 23.7468 29.6869 23.7617 29.7021C24.1584 29.2389 24.5103 28.7713 24.8225 28.2966ZM22.46 31.0534C21.6667 30.2384 20.714 29.5885 19.6557 29.1482C18.6082 28.7123 17.4893 28.4952 16.3662 28.5033C15.8363 28.5071 15.3055 28.5611 14.7809 28.6659C13.1442 28.9929 11.6409 29.8001 10.4609 30.9853C10.4222 31.0241 10.3839 31.0633 10.3461 31.1029C10.7078 31.4309 11.1492 31.7915 11.627 32.1603C11.9403 31.8454 12.285 31.5606 12.6571 31.3109C13.7561 30.5732 15.0453 30.1743 16.3662 30.1625C16.3864 30.1623 16.4067 30.1622 16.4269 30.1622C18.205 30.1646 19.9105 30.867 21.1781 32.1171C21.6595 31.7449 22.1018 31.382 22.46 31.0534ZM19.7034 33.207C18.8335 32.426 17.6854 31.9513 16.4269 31.9513C16.4066 31.9513 16.3864 31.9514 16.3662 31.9517C15.1081 31.967 13.9638 32.4566 13.1021 33.2508C14.7678 34.4388 16.3662 35.4602 16.3662 35.4602V31.9517L16.3662 35.4581C16.3662 35.4581 18.0103 34.4129 19.7034 33.207Z" fill="#FAFAFA"/>
<path d="M16.1906 22.0028C18.944 22.0028 21.1761 19.7608 21.1761 16.9951C21.1761 14.2294 18.944 11.9873 16.1906 11.9873C13.4372 11.9873 11.2051 14.2294 11.2051 16.9951C11.2051 19.7608 13.4372 22.0028 16.1906 22.0028Z" fill="#FAFAFA"/>
<path d="M31.4167 5.79181V2.69235C31.4167 1.57716 29.883 0.0183105 28.5126 0.0183105H3.81801C2.45063 0.0183105 1.16797 1.57716 1.16797 2.69235V5.79181H31.4198H31.4167Z" fill="#E0E0E0"/>
<path d="M4.89722 4.15931C5.38842 4.15931 5.78662 3.75933 5.78662 3.26593C5.78662 2.77254 5.38842 2.37256 4.89722 2.37256C4.40601 2.37256 4.00781 2.77254 4.00781 3.26593C4.00781 3.75933 4.40601 4.15931 4.89722 4.15931Z" fill="white"/>
<path d="M8.15307 4.15931C8.64428 4.15931 9.04248 3.75933 9.04248 3.26593C9.04248 2.77254 8.64428 2.37256 8.15307 2.37256C7.66187 2.37256 7.26367 2.77254 7.26367 3.26593C7.26367 3.75933 7.66187 4.15931 8.15307 4.15931Z" fill="white"/>
</g>
<defs>
<linearGradient id="paint0_linear_4245_1079" x1="16.3662" y1="5.54871" x2="16.3662" y2="7.78214" gradientUnits="userSpaceOnUse">
<stop stop-color="#263238" stop-opacity="0.35"/>
<stop offset="0.42" stop-color="#263238" stop-opacity="0.15"/>
<stop offset="0.89" stop-color="#263238" stop-opacity="0.02"/>
<stop offset="1" stop-color="#263238" stop-opacity="0"/>
</linearGradient>
<clipPath id="clip0_4245_1079">
<rect width="32.7324" height="49.0987" fill="white"/>
</clipPath>
</defs>
</svg>
