<svg width="65" height="70" viewBox="0 0 65 70" fill="none" xmlns="http://www.w3.org/2000/svg">
<path d="M39.9195 0V17.3168C39.9195 19.285 40.708 21.1727 42.1117 22.5645C43.5154 23.9563 45.4192 24.7382 47.4044 24.7382H64.8691V61.8455C64.8691 63.8138 64.0805 65.7015 62.6768 67.0933C61.2731 68.4851 59.3693 69.267 57.3842 69.267H38.2378C43.5485 65.5738 47.3681 60.135 49.0192 53.9152C50.6704 47.6954 50.0463 41.0967 47.2576 35.2898C44.469 29.4828 39.696 24.8429 33.7855 22.1932C27.875 19.5434 21.2089 19.055 14.9698 20.8147V7.42147C14.9698 5.45317 15.7584 3.56549 17.1621 2.1737C18.5658 0.781902 20.4696 0 22.4547 0H39.9195ZM44.9094 1.23691V17.3168C44.9094 17.9729 45.1722 18.6021 45.6401 19.066C46.108 19.5299 46.7426 19.7906 47.4044 19.7906H63.6216L44.9094 1.23691ZM44.9094 47.0026C44.9094 52.9075 42.5436 58.5705 38.3326 62.7459C34.1215 66.9213 28.41 69.267 22.4547 69.267C16.4993 69.267 10.7879 66.9213 6.57683 62.7459C2.36576 58.5705 0 52.9075 0 47.0026C0 41.0977 2.36576 35.4347 6.57683 31.2593C10.7879 27.0839 16.4993 24.7382 22.4547 24.7382C28.41 24.7382 34.1215 27.0839 38.3326 31.2593C42.5436 35.4347 44.9094 41.0977 44.9094 47.0026ZM24.9497 37.1073C24.9497 36.4512 24.6868 35.822 24.2189 35.3581C23.751 34.8941 23.1164 34.6335 22.4547 34.6335C21.793 34.6335 21.1584 34.8941 20.6905 35.3581C20.2226 35.822 19.9597 36.4512 19.9597 37.1073V44.5288H12.4748C11.8131 44.5288 11.1785 44.7894 10.7106 45.2534C10.2427 45.7173 9.97986 46.3465 9.97986 47.0026C9.97986 47.6587 10.2427 48.2879 10.7106 48.7519C11.1785 49.2158 11.8131 49.4764 12.4748 49.4764H19.9597V56.8979C19.9597 57.554 20.2226 58.1832 20.6905 58.6472C21.1584 59.1111 21.793 59.3717 22.4547 59.3717C23.1164 59.3717 23.751 59.1111 24.2189 58.6472C24.6868 58.1832 24.9497 57.554 24.9497 56.8979V49.4764H32.4346C33.0963 49.4764 33.7309 49.2158 34.1988 48.7519C34.6667 48.2879 34.9295 47.6587 34.9295 47.0026C34.9295 46.3465 34.6667 45.7173 34.1988 45.2534C33.7309 44.7894 33.0963 44.5288 32.4346 44.5288H24.9497V37.1073Z" fill="#77BE1D"/>
</svg>
