<svg width="69" height="49" viewBox="0 0 69 49" fill="none" xmlns="http://www.w3.org/2000/svg">
<path d="M0 6.04712C0 2.70911 2.7267 0 6.08639 0H52.3429C55.7026 0 58.4293 2.70911 58.4293 6.04712V32.6545C58.4293 35.9925 55.7026 38.7016 52.3429 38.7016H6.08639C2.7267 38.7016 0 35.9925 0 32.6545V6.04712ZM14.6073 7.25655V4.8377H9.73822V7.25655C9.73822 7.89806 9.48172 8.51331 9.02516 8.96693C8.56859 9.42055 7.94935 9.67539 7.30367 9.67539H4.86911V14.5131H7.30367C9.24072 14.5131 11.0984 13.7486 12.4681 12.3877C13.8378 11.0268 14.6073 9.1811 14.6073 7.25655ZM38.9529 19.3508C38.9529 16.7847 37.9269 14.3237 36.1006 12.5092C34.2743 10.6948 31.7974 9.67539 29.2147 9.67539C26.6319 9.67539 24.155 10.6948 22.3287 12.5092C20.5024 14.3237 19.4764 16.7847 19.4764 19.3508C19.4764 21.9169 20.5024 24.3778 22.3287 26.1923C24.155 28.0068 26.6319 29.0262 29.2147 29.0262C31.7974 29.0262 34.2743 28.0068 36.1006 26.1923C37.9269 24.3778 38.9529 21.9169 38.9529 19.3508ZM48.6911 4.8377H43.822V7.25655C43.822 9.1811 44.5915 11.0268 45.9612 12.3877C47.3309 13.7486 49.1886 14.5131 51.1257 14.5131H53.5602V9.67539H51.1257C50.48 9.67539 49.8607 9.42055 49.4042 8.96693C48.9476 8.51331 48.6911 7.89806 48.6911 7.25655V4.8377ZM14.6073 31.445C14.6073 29.5205 13.8378 27.6747 12.4681 26.3139C11.0984 24.953 9.24072 24.1885 7.30367 24.1885H4.86911V29.0262H7.30367C7.94935 29.0262 8.56859 29.281 9.02516 29.7346C9.48172 30.1883 9.73822 30.8035 9.73822 31.445V33.8639H14.6073V31.445ZM48.6911 33.8639V31.445C48.6911 30.8035 48.9476 30.1883 49.4042 29.7346C49.8607 29.281 50.48 29.0262 51.1257 29.0262H53.5602V24.1885H51.1257C49.1886 24.1885 47.3309 24.953 45.9612 26.3139C44.5915 27.6747 43.822 29.5205 43.822 31.445V33.8639H48.6911ZM17.0419 48.377C15.4994 48.3775 13.9964 47.8929 12.7482 46.9926C11.5 46.0923 10.5708 44.8224 10.0937 43.3651C10.7705 43.4812 11.4619 43.5393 12.1728 43.5393H52.3429C55.2485 43.5393 58.0351 42.3925 60.0896 40.3512C62.1442 38.3099 63.2984 35.5413 63.2984 32.6545V10.0866C64.723 10.587 65.9563 11.5141 66.8284 12.7401C67.7005 13.9661 68.1683 15.4307 68.1675 16.9319V32.6545C68.1675 34.7192 67.7582 36.7637 66.963 38.6712C66.1677 40.5787 65.0021 42.312 63.5326 43.7719C62.0632 45.2319 60.3187 46.39 58.3987 47.1802C56.4788 47.9703 54.4211 48.377 52.3429 48.377H17.0419Z" fill="#77BE1D"/>
</svg>
