<svg width="52" height="52" viewBox="0 0 52 52" fill="none" xmlns="http://www.w3.org/2000/svg">
<path fill-rule="evenodd" clip-rule="evenodd" d="M22.2138 1.50414L18.3213 5.39324C18.007 5.70768 17.5809 5.8848 17.1363 5.88583H11.0116C8.18002 5.88583 5.88583 8.18002 5.88583 11.0116V17.1363C5.88496 17.582 5.70788 18.0092 5.39324 18.3247L1.5007 22.2138C0.5398 23.1751 0 24.4786 0 25.8377C0 27.1968 0.5398 28.5003 1.5007 29.4615L5.39324 33.3541C5.70768 33.6684 5.8848 34.0945 5.88583 34.5391V40.6638C5.88583 43.4954 8.18002 45.7896 11.0116 45.7896H17.1363C17.582 45.7904 18.0092 45.9675 18.3247 46.2822L22.2138 50.1747C23.1751 51.1356 24.4786 51.6754 25.8377 51.6754C27.1968 51.6754 28.5003 51.1356 29.4615 50.1747L33.3541 46.2822C33.6684 45.9677 34.0945 45.7906 34.5391 45.7896H40.6638C43.4954 45.7896 45.7896 43.4954 45.7896 40.6638V34.5391C45.7904 34.0934 45.9675 33.6662 46.2822 33.3506L50.1747 29.4615C51.1356 28.5003 51.6754 27.1968 51.6754 25.8377C51.6754 24.4786 51.1356 23.1751 50.1747 22.2138L46.2822 18.3213C45.9677 18.007 45.7906 17.5809 45.7896 17.1363V11.0116C45.7896 8.18002 43.4954 5.88583 40.6638 5.88583H34.5391C34.0933 5.88571 33.6658 5.70852 33.3506 5.39324L29.4615 1.5007C28.5003 0.5398 27.1968 0 25.8377 0C24.4786 0 23.1751 0.543244 22.2138 1.50414ZM16.0064 33.2301L33.2301 16.0064L35.6689 18.4453L18.4453 35.6689L16.0064 33.2301ZM17.2259 17.2259V20.6706H20.6706V17.2259H17.2259ZM31.0048 34.4495H34.4495V31.0048H31.0048V34.4495Z" fill="#77BE1D"/>
</svg>
