<svg width="71" height="70" viewBox="0 0 71 70" fill="none" xmlns="http://www.w3.org/2000/svg">
<path fill-rule="evenodd" clip-rule="evenodd" d="M28.7327 3.15119C28.7333 2.49459 28.5257 1.85424 28.139 1.31975C27.7523 0.785254 27.2059 0.383367 26.5762 0.170328C25.9464 -0.0427108 25.2649 -0.0562413 24.627 0.13163C23.9891 0.319502 23.4267 0.699374 23.0185 1.21809L0.672593 29.5534C0.236673 30.1061 0 30.7863 0 31.4865C0 32.1868 0.236673 32.867 0.672593 33.4197L23.0185 61.755C23.4267 62.2737 23.9891 62.6536 24.627 62.8415C25.2649 63.0293 25.9464 63.0158 26.5762 62.8028C27.2059 62.5897 27.7523 62.1879 28.139 61.6534C28.5257 61.1189 28.7333 60.4785 28.7327 59.8219V47.2599C45.9039 47.6125 54.1527 50.827 58.2963 54.3217C62.2356 57.6432 62.957 61.5504 63.7072 65.6433L63.9019 66.698C64.0452 67.4527 64.4631 68.1297 65.0771 68.6017C65.6911 69.0738 66.4589 69.3083 67.2359 69.2611C68.0129 69.2139 68.7457 68.8882 69.2964 68.3455C69.847 67.8027 70.1775 67.0802 70.2258 66.3139C70.7717 57.6621 69.9513 45.1253 63.7551 34.6381C57.7408 24.4594 46.9095 16.6325 28.7327 15.8139V3.15119Z" fill="#77BE1D"/>
</svg>
