<svg width="70" height="70" viewBox="0 0 70 70" fill="none" xmlns="http://www.w3.org/2000/svg">
<path fill-rule="evenodd" clip-rule="evenodd" d="M0 27.8992C0 12.4912 12.4912 0 27.8992 0H41.3678C56.7759 0 69.267 12.4912 69.267 27.8992C69.267 43.3073 56.7759 55.7984 41.3678 55.7984H40.0209V69.267C40.0209 69.267 0 62.5327 0 27.8992ZM41.7353 12.4719C43.7171 13.788 45.2121 15.9218 45.2121 18.7829C45.2121 21.8191 43.9865 24.051 42.0027 25.4171C41.2196 25.9473 40.3552 26.3464 39.4437 26.5985V29.5462C39.4437 29.9252 39.3691 30.3005 39.224 30.6507C39.079 31.0009 38.8664 31.319 38.5984 31.587C38.3304 31.855 38.0122 32.0676 37.6621 32.2127C37.3119 32.3577 36.9366 32.4324 36.5576 32.4324C36.1786 32.4324 35.8033 32.3577 35.4531 32.2127C35.103 32.0676 34.7848 31.855 34.5168 31.587C34.2488 31.319 34.0362 31.0009 33.8912 30.6507C33.7461 30.3005 33.6715 29.9252 33.6715 29.5462V24.1646C33.6713 23.4323 33.9495 22.7274 34.4496 22.1926C34.9498 21.6577 35.6346 21.333 36.3652 21.2842C37.4311 21.213 38.2392 21.0014 38.728 20.6647C38.9253 20.5339 39.0845 20.3534 39.1897 20.1413C39.3052 19.9104 39.4399 19.4987 39.4399 18.781C39.4399 18.1787 39.2032 17.7189 38.5394 17.2763C37.7852 16.7761 36.573 16.4067 35.1165 16.3605C33.6772 16.3143 32.2784 16.5952 31.249 17.0936C30.2177 17.5938 29.8406 18.1557 29.7329 18.5693C29.6456 18.9437 29.4843 19.2969 29.2587 19.6081C29.033 19.9193 28.7475 20.1823 28.4188 20.3816C28.0901 20.581 27.7249 20.7126 27.3446 20.7689C26.9643 20.8252 26.5766 20.8049 26.2043 20.7093C25.832 20.6137 25.4825 20.4446 25.1764 20.2121C24.8702 19.9796 24.6137 19.6882 24.4217 19.3552C24.2297 19.0221 24.1062 18.6541 24.0584 18.2727C24.0106 17.8912 24.0395 17.5041 24.1434 17.134C24.8053 14.5538 26.7371 12.8683 28.7323 11.9005C30.7334 10.9288 33.0865 10.519 35.3012 10.5902C37.4985 10.6594 39.8458 11.2136 41.7353 12.4719ZM36.5576 44.2539C37.5782 44.2539 38.557 43.8485 39.2787 43.1268C40.0003 42.4052 40.4058 41.4264 40.4058 40.4058C40.4058 39.3852 40.0003 38.4064 39.2787 37.6847C38.557 36.963 37.5782 36.5576 36.5576 36.5576C35.537 36.5576 34.5582 36.963 33.8365 37.6847C33.1149 38.4064 32.7094 39.3852 32.7094 40.4058C32.7094 41.4264 33.1149 42.4052 33.8365 43.1268C34.5582 43.8485 35.537 44.2539 36.5576 44.2539Z" fill="#77BE1D"/>
</svg>
