<svg width="456" height="431" viewBox="0 0 456 431" fill="none" xmlns="http://www.w3.org/2000/svg">
<path d="M349.73 133.312L388.349 124.317C388.349 124.317 414.172 122.003 417.665 144.947C421.158 167.891 420.144 303.872 419.052 331.917C418.691 341.162 418.736 349.7 419.521 357.147C421.159 372.659 409.057 386.208 393.461 386.479L321.562 387.722L349.73 133.312Z" fill="#77BE1D"/>
<path d="M329.184 398.775C329.184 398.775 336.899 290.595 391.773 224.652C392.489 223.792 393.729 224.007 394.107 225.065C400.085 241.77 433.695 349.194 329.184 398.775Z" fill="#65B097"/>
<path d="M389.403 256.045C388.942 262.356 388.028 268.584 386.97 274.8C385.874 281.007 384.587 287.182 383.073 293.305C380.075 305.573 376.252 317.626 371.63 329.38C369.288 335.247 366.803 341.062 364.026 346.738C362.678 349.596 361.174 352.38 359.727 355.19C358.195 357.958 356.701 360.741 355.042 363.436C348.618 374.322 341.095 384.581 332.507 393.814C332.387 393.939 332.224 394.014 332.051 394.023C331.878 394.032 331.708 393.975 331.575 393.863C331.443 393.751 331.358 393.593 331.338 393.421C331.319 393.249 331.365 393.075 331.469 392.936V392.928C339.109 383.066 345.963 372.619 351.968 361.684C353.507 358.978 354.875 356.179 356.342 353.435C357.704 350.636 359.126 347.868 360.395 345.023C361.032 343.603 361.718 342.213 362.339 340.778L364.219 336.505C364.836 335.075 365.414 333.628 366.013 332.192C366.611 330.755 367.186 329.307 367.745 327.854C368.902 324.964 369.984 322.041 371.071 319.122C372.11 316.184 373.148 313.245 374.12 310.283C376.122 304.379 377.9 298.4 379.616 292.399C381.298 286.39 382.862 280.343 384.265 274.254C385.695 268.175 386.966 262.037 388.044 255.904V255.884C388.073 255.712 388.168 255.558 388.308 255.453C388.448 255.349 388.623 255.303 388.797 255.324C388.97 255.345 389.129 255.432 389.239 255.568C389.35 255.703 389.405 255.875 389.391 256.05L389.403 256.045Z" fill="url(#paint0_linear_1839_2047)"/>
<path d="M335.984 386.934C335.984 386.934 392.553 291.781 454.098 290.293C454.354 290.287 454.607 290.34 454.84 290.446C455.072 290.552 455.278 290.709 455.441 290.906C455.604 291.103 455.72 291.334 455.782 291.582C455.843 291.831 455.847 292.089 455.794 292.339C453.174 304.773 434.851 369.882 335.984 386.934Z" fill="#97E8AD"/>
<path d="M441.063 305.386C437.335 309.302 433.495 313.07 429.601 316.793C427.634 318.634 425.669 320.476 423.682 322.294C421.695 324.113 419.696 325.92 417.672 327.697C409.595 334.828 401.278 341.676 392.722 348.24C388.481 351.565 384.087 354.688 379.753 357.887L373.12 362.515C372.013 363.282 370.913 364.061 369.792 364.81L366.408 367.019C357.465 373.038 348.12 378.425 338.708 383.674C338.631 383.718 338.545 383.747 338.457 383.758C338.368 383.769 338.278 383.763 338.192 383.74C338.106 383.716 338.026 383.676 337.955 383.621C337.884 383.566 337.825 383.498 337.781 383.421C337.737 383.343 337.708 383.258 337.697 383.169C337.686 383.081 337.692 382.991 337.715 382.905C337.739 382.819 337.779 382.738 337.834 382.668C337.888 382.597 337.956 382.538 338.034 382.494L338.05 382.484L344.994 378.41L348.465 376.374C349.613 375.678 350.74 374.947 351.877 374.236L358.7 369.964C360.948 368.501 363.163 366.989 365.405 365.512L368.754 363.279L372.051 360.965L378.64 356.336C382.948 353.135 387.312 350.011 391.526 346.685C395.798 343.435 399.974 340.062 404.153 336.693L410.342 331.545L416.459 326.305C418.496 324.556 420.488 322.759 422.506 320.988C424.525 319.218 426.484 317.383 428.458 315.571C432.397 311.934 436.313 308.241 440.074 304.439L440.084 304.429C440.21 304.3 440.382 304.225 440.562 304.223C440.651 304.221 440.74 304.238 440.823 304.271C440.906 304.304 440.981 304.353 441.045 304.415C441.109 304.477 441.161 304.551 441.196 304.633C441.231 304.715 441.25 304.803 441.251 304.893C441.253 304.982 441.237 305.07 441.204 305.153C441.171 305.236 441.122 305.312 441.059 305.376L441.063 305.386Z" fill="#65B097"/>
<path d="M271.215 135.18C271.215 135.18 341.543 139.043 388.349 124.317C388.349 124.317 357.23 122.185 357.23 194.034C357.23 248.966 365.377 353.816 358.263 373.72C351.15 393.624 324.552 420.379 286.424 397.385C248.296 374.392 271.215 135.18 271.215 135.18Z" fill="#77B627"/>
<path d="M252.52 27.4613C252.52 27.4613 330.108 35.9188 340.103 22.7664C340.103 22.7664 332.151 -0.901695 308.54 0.67375C284.928 2.2492 252.52 27.4613 252.52 27.4613Z" fill="#289F49"/>
<path d="M0.169447 54.0901C6.94733 130.126 21.1511 290.954 27.3339 369.298C28.0001 377.746 31.6894 385.67 37.7251 391.618C43.7608 397.566 51.7385 401.139 60.1951 401.682C122.476 405.679 262.637 413.435 316.432 406.219C310.394 403.243 305.317 398.623 301.785 392.892C298.253 387.161 296.409 380.55 296.464 373.818L299.319 22.2654C299.42 9.8437 311.794 0.918384 323.425 5.27607C330.753 8.02359 336.303 13.8724 340.11 22.7647C335.032 7.96739 327.05 -2.85905 308.547 0.672066C308.547 0.672066 127.632 2.4806 39.8416 7.92275C15.9801 9.40397 -1.94492 30.2832 0.169447 54.0901Z" fill="#A3E74C"/>
<path opacity="0.53" d="M44.9275 17.9888L288.024 8.62866C277.997 82.8548 282.238 234.018 286.055 382.991C286.165 387.321 287.476 391.535 289.84 395.164C292.204 398.793 295.53 401.694 299.445 403.545C299.445 403.545 137.302 405.414 67.6334 400.471C59.671 399.902 52.1403 396.636 46.283 391.212C40.4257 385.788 36.5913 378.531 35.412 370.636C25.8485 306.806 2.96573 141.922 7.72843 54.629C8.81785 34.6392 24.9228 18.7591 44.9275 17.9888Z" fill="url(#paint1_linear_1839_2047)"/>
<path d="M41.7107 133.124L44.5475 160.356C44.7988 162.77 45.9125 165.013 47.6841 166.672C49.4558 168.331 51.7664 169.296 54.192 169.389L70.0456 169.997C71.4022 170.049 72.7554 169.827 74.0241 169.344C75.2927 168.86 76.4507 168.126 77.4287 167.184C78.4066 166.243 79.1843 165.113 79.7152 163.864C80.2461 162.614 80.5193 161.27 80.5183 159.913V130.543C80.5186 129.149 80.2299 127.77 79.6703 126.493C79.1107 125.216 78.2924 124.069 77.2671 123.124C76.2418 122.18 75.0318 121.458 73.7134 121.004C72.395 120.551 70.997 120.376 69.6075 120.49L50.9204 122.026C49.5814 122.135 48.2777 122.511 47.086 123.131C45.8942 123.751 44.8383 124.603 43.9804 125.637C43.1225 126.671 42.4797 127.865 42.09 129.151C41.7002 130.437 41.5713 131.787 41.7107 133.124Z" fill="#161119"/>
<path d="M97.4598 124.731C123.846 123.904 225.137 120.618 250.714 119.786C251.48 119.761 252.242 119.891 252.956 120.166C253.67 120.442 254.322 120.859 254.872 121.392C255.421 121.924 255.859 122.562 256.157 123.267C256.455 123.972 256.609 124.73 256.608 125.496C256.607 126.974 256.034 128.395 255.008 129.459C253.982 130.524 252.583 131.149 251.106 131.204L97.9508 136.891C96.528 136.944 95.1367 136.464 94.0494 135.545C92.9621 134.625 92.257 133.333 92.0722 131.922L91.9763 131.181C91.8725 130.39 91.9355 129.586 92.1613 128.821C92.3871 128.056 92.7706 127.347 93.2872 126.74C93.8038 126.132 94.442 125.639 95.1607 125.293C95.8794 124.947 96.6626 124.755 97.4598 124.731Z" fill="#161119"/>
<path d="M95.8016 160.629C96.0227 160.999 96.3383 161.303 96.7158 161.512C97.0934 161.72 97.5196 161.824 97.9506 161.814L203.107 159.529C203.743 159.517 204.349 159.255 204.795 158.801C205.24 158.346 205.489 157.735 205.489 157.099V150.166C205.489 149.839 205.423 149.516 205.295 149.215C205.168 148.914 204.98 148.642 204.745 148.416C204.51 148.189 204.231 148.012 203.926 147.895C203.62 147.779 203.295 147.725 202.968 147.737L100.731 151.559C96.1768 151.73 93.469 156.719 95.8016 160.629Z" fill="#161119"/>
<path d="M41.7107 208.697L44.5475 235.926C44.7985 238.34 45.912 240.583 47.6836 242.243C49.4553 243.903 51.7662 244.867 54.192 244.96L70.0456 245.567C71.4022 245.619 72.7554 245.397 74.0241 244.914C75.2927 244.43 76.4507 243.696 77.4287 242.754C78.4066 241.813 79.1843 240.683 79.7152 239.434C80.2461 238.184 80.5193 236.84 80.5183 235.483V206.115C80.5184 204.721 80.2295 203.342 79.6698 202.065C79.1101 200.788 78.2918 199.642 77.2665 198.697C76.2412 197.753 75.0313 197.031 73.713 196.578C72.3948 196.124 70.9968 195.949 69.6075 196.064L50.9204 197.599C49.5814 197.709 48.2777 198.084 47.086 198.704C45.8942 199.324 44.8383 200.176 43.9804 201.21C43.1225 202.244 42.4797 203.439 42.09 204.725C41.7002 206.01 41.5713 207.361 41.7107 208.697Z" fill="#161119"/>
<path d="M97.4609 200.304C123.847 199.477 225.138 196.189 250.716 195.358C251.481 195.333 252.243 195.463 252.957 195.739C253.671 196.015 254.322 196.431 254.872 196.964C255.422 197.497 255.859 198.134 256.157 198.839C256.456 199.544 256.609 200.302 256.609 201.068C256.609 202.546 256.035 203.967 255.009 205.032C253.984 206.097 252.585 206.723 251.107 206.778L97.9519 212.463C96.5283 212.516 95.1364 212.035 94.049 211.115C92.9615 210.194 92.2569 208.901 92.0733 207.489L91.9774 206.748C91.8746 205.958 91.9383 205.155 92.1646 204.39C92.3908 203.626 92.7745 202.918 93.291 202.311C93.8076 201.704 94.4454 201.212 95.1636 200.866C95.8817 200.52 96.6643 200.329 97.4609 200.304Z" fill="#161119"/>
<path opacity="0.78" d="M95.8014 236.2C96.0224 236.571 96.3378 236.876 96.7155 237.084C97.0931 237.292 97.5194 237.396 97.9505 237.386L203.115 235.101C203.751 235.087 204.355 234.825 204.799 234.371C205.244 233.916 205.493 233.306 205.492 232.671V225.738C205.492 225.411 205.427 225.087 205.299 224.787C205.171 224.486 204.984 224.214 204.748 223.988C204.513 223.761 204.234 223.585 203.929 223.468C203.623 223.352 203.298 223.298 202.971 223.311L100.739 227.133C96.1767 227.308 93.4688 232.287 95.8014 236.2Z" fill="white"/>
<path d="M41.7107 284.269L44.5475 311.499C44.7988 313.914 45.9125 316.156 47.6841 317.815C49.4558 319.475 51.7664 320.439 54.192 320.532L70.0456 321.14C71.4022 321.193 72.7554 320.971 74.0241 320.487C75.2927 320.004 76.4507 319.269 77.4287 318.328C78.4066 317.386 79.1843 316.257 79.7152 315.007C80.2461 313.758 80.5193 312.414 80.5183 311.056V281.696C80.5186 280.302 80.2299 278.923 79.6703 277.646C79.1107 276.369 78.2924 275.222 77.2671 274.278C76.2418 273.333 75.0318 272.611 73.7134 272.158C72.395 271.704 70.997 271.529 69.6075 271.644L50.9204 273.171C49.5814 273.28 48.2777 273.656 47.086 274.276C45.8942 274.896 44.8383 275.748 43.9804 276.782C43.1225 277.816 42.4797 279.011 42.09 280.296C41.7002 281.582 41.5713 282.933 41.7107 284.269Z" fill="#161119"/>
<path d="M97.4609 275.876C123.847 275.049 225.138 271.763 250.716 270.931C251.481 270.906 252.243 271.036 252.957 271.312C253.671 271.587 254.323 272.004 254.873 272.537C255.423 273.07 255.86 273.707 256.158 274.413C256.456 275.118 256.61 275.876 256.609 276.641C256.608 278.119 256.035 279.54 255.009 280.604C253.983 281.669 252.585 282.294 251.107 282.349L97.9519 288.035C96.5282 288.088 95.1361 287.607 94.0486 286.687C92.9611 285.766 92.2566 284.473 92.0733 283.06L91.9774 282.32C91.8746 281.529 91.9383 280.726 92.1646 279.962C92.3908 279.198 92.7745 278.489 93.291 277.882C93.8076 277.276 94.4454 276.783 95.1636 276.438C95.8817 276.092 96.6643 275.901 97.4609 275.876Z" fill="#161119"/>
<path d="M95.8014 311.774C96.0224 312.144 96.338 312.449 96.7156 312.657C97.0933 312.865 97.5195 312.969 97.9505 312.957L203.115 310.673C203.75 310.659 204.355 310.397 204.799 309.943C205.243 309.489 205.492 308.879 205.492 308.244V301.311C205.492 300.984 205.427 300.661 205.299 300.36C205.171 300.059 204.984 299.788 204.748 299.561C204.513 299.334 204.234 299.157 203.929 299.041C203.624 298.924 203.298 298.87 202.971 298.883L100.739 302.705C96.1767 302.875 93.4688 307.859 95.8014 311.774Z" fill="#161119"/>
<path d="M348.096 292.24C347.786 292.24 347.49 292.119 347.269 291.902C347.048 291.686 346.92 291.392 346.914 291.083C346.914 291.047 346.841 287.317 346.482 274.54C346.474 274.382 346.497 274.225 346.551 274.076C346.604 273.927 346.687 273.791 346.794 273.675C346.901 273.559 347.03 273.466 347.174 273.4C347.318 273.335 347.473 273.299 347.631 273.294C347.789 273.29 347.946 273.317 348.093 273.374C348.24 273.432 348.375 273.518 348.488 273.628C348.601 273.738 348.692 273.869 348.753 274.014C348.815 274.16 348.847 274.316 348.848 274.474C349.208 287.268 349.279 291.005 349.281 291.038C349.287 291.351 349.168 291.654 348.951 291.88C348.734 292.106 348.437 292.237 348.124 292.244L348.096 292.24Z" fill="white"/>
<path d="M347.234 261.05C346.927 261.05 346.632 260.93 346.411 260.716C346.19 260.502 346.062 260.21 346.052 259.903C345.798 251.586 345.401 242.391 344.981 232.656C344.416 219.504 343.824 205.902 343.518 192.799C342.701 158.22 348.405 144.947 353.334 139.898C356.013 137.156 358.258 137.076 358.504 137.076C358.818 137.073 359.12 137.194 359.344 137.414C359.569 137.634 359.697 137.934 359.7 138.247C359.703 138.561 359.582 138.864 359.362 139.088C359.142 139.312 358.843 139.44 358.529 139.444C358.259 139.463 344.66 140.956 345.885 192.743C346.195 205.821 346.78 219.411 347.347 232.552C347.767 242.295 348.163 251.497 348.418 259.829C348.423 259.984 348.397 260.139 348.343 260.284C348.288 260.43 348.205 260.563 348.098 260.676C347.992 260.79 347.864 260.881 347.722 260.945C347.581 261.009 347.428 261.044 347.272 261.049L347.234 261.05Z" fill="white"/>
<path opacity="0.78" d="M248.186 90.7072L54.5283 96.4535C51.1844 96.5528 47.9349 95.3366 45.4779 93.0663C43.0209 90.7959 41.5522 87.6525 41.3875 84.3112L40.6717 69.823C40.5881 68.123 40.845 66.4234 41.4273 64.8241C42.0097 63.2247 42.9058 61.7579 44.063 60.5097C45.2202 59.2615 46.6151 58.2571 48.1659 57.5556C49.7166 56.854 51.3919 56.4694 53.0934 56.4243L247.715 51.2797C249.44 51.2339 251.156 51.538 252.76 52.1738C254.365 52.8096 255.823 53.7638 257.049 54.9789C258.274 56.194 259.24 57.6448 259.889 59.2436C260.539 60.8425 260.857 62.5563 260.826 64.2817L260.574 78.1681C260.515 81.4493 259.196 84.5819 256.889 86.9164C254.583 89.251 251.466 90.6083 248.186 90.7072Z" fill="#161119"/>
<path d="M187.183 243.287C187.183 243.287 180.725 239.05 179.83 240.027C179.511 240.375 178.769 241.555 178.076 242.838C177.837 243.28 177.745 243.787 177.813 244.286C177.881 244.784 178.106 245.248 178.455 245.61L180.121 247.331C180.494 247.719 180.946 248.023 181.446 248.222C181.946 248.421 182.483 248.51 183.02 248.483C183.558 248.457 184.084 248.316 184.562 248.069C185.04 247.822 185.46 247.476 185.793 247.053C186.623 245.966 187.108 244.654 187.183 243.287Z" fill="url(#paint2_linear_1839_2047)"/>
<path d="M193.772 235.243C193.772 235.243 191.555 229.408 188.966 229.941C186.378 230.475 183.544 232.466 183.544 232.466L179.385 238.087C179.385 238.087 191.061 242.686 195.167 240.049C195.167 240.049 207.095 242.11 222.155 239.639C219.974 235.036 218.683 230.427 217.913 226.85C210.285 231.168 202.068 234.393 193.772 235.243Z" fill="url(#paint3_linear_1839_2047)"/>
<path d="M256.946 192.913C256.946 192.913 239.876 214.414 217.912 226.85C218.674 230.428 219.974 235.036 222.154 239.639C233.546 237.769 246.73 233.309 257.907 223.397L256.946 192.913Z" fill="#77BE1D"/>
<path d="M278.241 288.24C274.901 272.378 271.562 263.194 260.387 233.127C256.869 223.666 253.673 214.093 255.217 204.118L256.951 192.913C256.951 192.913 278.682 185.561 302.768 192.604C302.768 192.604 335.631 206.88 313.31 277.387C303.243 288.64 291.467 291.85 278.241 288.24Z" fill="#77BE1D"/>
<path d="M260.645 178.615L266.278 192.151C266.454 192.571 266.733 192.94 267.089 193.223C267.446 193.506 267.868 193.695 268.317 193.771C271.565 194.329 279.423 195.199 284.582 191.807C284.727 191.709 284.851 191.584 284.947 191.438C285.043 191.293 285.11 191.129 285.142 190.958C285.175 190.786 285.174 190.61 285.138 190.439C285.102 190.268 285.033 190.106 284.934 189.962L274.519 175.017L260.645 178.615Z" fill="url(#paint4_linear_1839_2047)"/>
<path d="M266.473 157.903C266.237 158.126 256.486 177.274 256.486 177.274L267.538 182.609L279.475 165.834C279.475 165.834 270.434 154.175 266.473 157.903Z" fill="url(#paint5_linear_1839_2047)"/>
<path d="M274.453 167.846L268.941 177.034C268.858 177.173 268.756 177.3 268.638 177.411C267.977 178.021 265.737 179.797 264.01 177.38C262.522 175.318 261.143 173.444 259.655 172.672C259.448 172.566 259.222 172.502 258.99 172.484C258.758 172.466 258.525 172.494 258.304 172.567C258.082 172.639 257.878 172.755 257.702 172.908C257.526 173.06 257.382 173.245 257.278 173.454C256.369 175.254 254.61 178.922 253.506 182.402C253.374 182.823 253.406 183.278 253.595 183.676C253.784 184.075 254.116 184.387 254.526 184.551C256.764 185.459 261.188 187.099 265.106 187.639C265.421 187.683 265.743 187.641 266.037 187.516C266.33 187.391 266.584 187.189 266.772 186.932C268.46 184.617 273.219 178.154 274.843 176.535C276.352 175.032 279.141 175.599 280.392 175.96C280.627 176.028 280.874 176.047 281.116 176.015C281.358 175.983 281.592 175.901 281.801 175.775C283.074 175.008 285.296 173.098 283.264 169.865C283.025 169.473 282.948 169.003 283.05 168.555C283.152 168.108 283.424 167.718 283.809 167.468C285.231 166.534 286.773 164.778 285.297 161.936C283.809 159.058 281.153 158.795 279.346 159.02C278.953 159.074 278.554 159 278.207 158.808C277.861 158.615 277.586 158.316 277.425 157.954C277.35 157.765 277.226 157.599 277.067 157.473C276.907 157.347 276.717 157.265 276.516 157.236C276.292 157.197 276.078 157.114 275.887 156.991C275.696 156.869 275.531 156.709 275.402 156.522C275.273 156.335 275.183 156.125 275.136 155.902C275.089 155.68 275.087 155.451 275.13 155.228C275.449 153.599 275.21 151.483 272.609 150.053C267.842 147.433 263.664 151.707 262.603 155.31C261.542 158.914 266.871 161.465 270.225 161.89C272.689 162.202 274.039 164.89 274.583 166.297C274.681 166.548 274.72 166.818 274.697 167.087C274.675 167.355 274.591 167.615 274.453 167.846Z" fill="#1D1D1D"/>
<path d="M272.52 179.288C272.52 179.288 274.892 173.708 277.606 173.935C280.321 174.161 282.457 176.867 279.094 179.906C274.908 183.687 272.52 179.288 272.52 179.288Z" fill="url(#paint6_linear_1839_2047)"/>
<path d="M276.103 428.033C281.351 428.486 290.46 429.223 297.64 429.539C301.956 429.729 304.442 429.306 305.872 428.734C305.872 428.899 305.872 429.048 305.859 429.188C305.839 429.555 305.684 429.901 305.423 430.16C305.163 430.42 304.816 430.573 304.449 430.592C295.057 431.127 285.642 431.136 276.248 430.62C276.067 430.611 275.89 430.556 275.737 430.459C275.583 430.363 275.456 430.228 275.37 430.068C275.283 429.908 275.239 429.729 275.242 429.548C275.245 429.366 275.295 429.188 275.387 429.031C275.601 428.682 275.84 428.348 276.103 428.033Z" fill="#021E14"/>
<path d="M297.639 429.539C290.459 429.223 281.35 428.486 276.102 428.033C281.261 421.701 297.639 417.434 297.639 417.434H302.268C305.45 422.02 305.904 426.386 305.875 428.734C304.441 429.306 301.955 429.729 297.639 429.539Z" fill="#063022"/>
<path d="M303.045 409.883L302.612 418.449C302.589 418.902 302.41 419.333 302.105 419.668C301.801 420.004 301.389 420.223 300.941 420.289C299.777 420.463 298.588 420.365 297.469 420.002C297.073 419.872 296.72 419.639 296.446 419.325C296.172 419.012 295.987 418.631 295.912 418.221L294.424 409.883H303.045Z" fill="url(#paint7_linear_1839_2047)"/>
<path d="M363.125 429.474C365.401 429.157 366.431 427.975 366.863 426.71C366.863 426.722 366.863 426.733 366.863 426.745C367.193 428.079 366.421 429.459 364.879 430.117C363.002 430.911 360.951 431.046 359.359 430.982C357.651 430.911 356.082 430.203 355.226 429.073L355.213 429.056C356.919 429.904 359.329 430.003 363.125 429.474Z" fill="url(#paint8_linear_1839_2047)"/>
<path d="M352.393 409.828H356.208C362.019 409.709 365.667 421.966 366.861 426.71C366.43 427.975 365.4 429.157 363.123 429.474C359.321 430.003 356.921 429.904 355.206 429.056C352.065 424.923 350.511 418.874 349.763 415.343C348.913 411.328 352.393 409.828 352.393 409.828Z" fill="#021E14"/>
<path d="M355.717 401.88L357.836 410.311C357.961 410.814 357.911 411.344 357.695 411.815C357.478 412.286 357.109 412.67 356.646 412.903C355.461 413.51 353.793 414.15 352.259 413.964C351.906 413.918 351.574 413.775 351.299 413.55C351.024 413.325 350.817 413.028 350.701 412.692L347.592 403.827L355.717 401.88Z" fill="url(#paint9_linear_1839_2047)"/>
<path d="M358.239 404.313C355.594 406.651 347.031 406.958 347.031 406.958C316.153 332.85 303.28 312.448 303.28 312.448C307.744 340.419 304.241 412.219 304.241 412.219C299.146 414.467 292.576 412.219 292.576 412.219C292.163 366.427 285.716 317.218 277.4 285.733C298.27 285.264 309.612 280.714 313.236 277.848C330.632 305.895 358.239 404.313 358.239 404.313Z" fill="#083E2C"/>
<path d="M272.15 306.444L275.991 330.329C276.318 332.337 277.411 334.14 279.039 335.359C280.668 336.578 282.705 337.119 284.724 336.868L342.206 329.857C343.563 329.696 344.816 329.049 345.735 328.037C346.654 327.025 347.176 325.716 347.206 324.349C347.329 318.176 347.087 307.195 344.497 297.186L272.15 306.444Z" fill="url(#paint10_linear_1839_2047)"/>
<path d="M286.659 335.267C286.609 335.27 286.56 335.253 286.523 335.219C286.485 335.186 286.462 335.14 286.459 335.09C286.456 335.04 286.473 334.99 286.506 334.953C286.54 334.915 286.586 334.893 286.636 334.89L288.137 334.706C288.162 334.703 288.187 334.705 288.211 334.712C288.235 334.718 288.257 334.729 288.277 334.745C288.296 334.76 288.313 334.779 288.325 334.801C288.337 334.822 288.345 334.846 288.348 334.871C288.351 334.895 288.349 334.92 288.343 334.944C288.336 334.968 288.325 334.99 288.31 335.01C288.294 335.03 288.275 335.046 288.254 335.058C288.232 335.07 288.208 335.078 288.184 335.081L286.683 335.265L286.659 335.267ZM283.156 335.2C283.141 335.203 283.125 335.203 283.11 335.2C282.608 335.077 282.12 334.903 281.654 334.681C281.61 334.658 281.577 334.619 281.561 334.573C281.546 334.526 281.549 334.475 281.57 334.43C281.592 334.386 281.63 334.351 281.676 334.334C281.723 334.317 281.774 334.319 281.819 334.339C282.263 334.55 282.727 334.716 283.204 334.835C283.25 334.846 283.289 334.872 283.316 334.91C283.342 334.948 283.354 334.995 283.349 335.041C283.343 335.087 283.321 335.129 283.286 335.16C283.251 335.191 283.206 335.207 283.16 335.207L283.156 335.2ZM291.663 334.656C291.639 334.658 291.614 334.655 291.59 334.647C291.567 334.639 291.545 334.626 291.527 334.609C291.508 334.593 291.493 334.573 291.482 334.551C291.471 334.529 291.465 334.504 291.463 334.48C291.462 334.455 291.465 334.43 291.473 334.407C291.481 334.383 291.494 334.362 291.51 334.343C291.527 334.324 291.547 334.309 291.569 334.298C291.591 334.287 291.616 334.281 291.64 334.28L293.143 334.096C293.193 334.09 293.243 334.104 293.282 334.135C293.322 334.166 293.347 334.212 293.353 334.261C293.359 334.311 293.345 334.361 293.314 334.401C293.283 334.44 293.237 334.465 293.188 334.471L291.687 334.655L291.663 334.656ZM296.668 334.046C296.618 334.05 296.568 334.033 296.531 333.999C296.493 333.966 296.471 333.92 296.468 333.87C296.464 333.82 296.481 333.77 296.515 333.733C296.548 333.695 296.594 333.673 296.644 333.67L298.147 333.486C298.172 333.482 298.197 333.484 298.221 333.49C298.245 333.497 298.268 333.508 298.288 333.523C298.307 333.539 298.324 333.558 298.336 333.58C298.348 333.602 298.355 333.626 298.357 333.651C298.363 333.701 298.349 333.752 298.318 333.791C298.287 333.831 298.242 333.857 298.192 333.863L296.689 334.046H296.668ZM301.673 333.435C301.623 333.438 301.574 333.421 301.537 333.388C301.499 333.355 301.476 333.308 301.473 333.258C301.47 333.208 301.487 333.159 301.52 333.121C301.553 333.084 301.6 333.061 301.65 333.058L303.151 332.876C303.176 332.873 303.201 332.874 303.225 332.881C303.249 332.887 303.272 332.898 303.291 332.914C303.311 332.929 303.327 332.949 303.339 332.971C303.351 332.992 303.359 333.017 303.361 333.041C303.367 333.091 303.353 333.142 303.322 333.181C303.291 333.221 303.246 333.247 303.196 333.253L301.703 333.44L301.673 333.435ZM306.677 332.825C306.627 332.828 306.578 332.811 306.541 332.778C306.503 332.745 306.48 332.698 306.477 332.648C306.474 332.598 306.491 332.549 306.524 332.511C306.557 332.474 306.604 332.451 306.654 332.448L308.155 332.264C308.18 332.261 308.205 332.262 308.229 332.268C308.254 332.275 308.276 332.286 308.296 332.302C308.316 332.317 308.332 332.337 308.344 332.359C308.356 332.381 308.363 332.405 308.365 332.43C308.368 332.454 308.367 332.479 308.36 332.503C308.353 332.527 308.342 332.55 308.327 332.569C308.311 332.589 308.292 332.605 308.27 332.617C308.249 332.629 308.225 332.637 308.2 332.64L306.699 332.823L306.677 332.825ZM279.014 332.494C278.985 332.494 278.956 332.488 278.93 332.475C278.904 332.463 278.881 332.444 278.863 332.421C278.546 332.01 278.273 331.567 278.048 331.099C278.037 331.077 278.031 331.052 278.029 331.028C278.027 331.003 278.031 330.978 278.039 330.955C278.047 330.931 278.059 330.909 278.076 330.891C278.092 330.872 278.112 330.857 278.134 330.846C278.179 330.824 278.231 330.821 278.279 330.838C278.326 330.854 278.365 330.889 278.387 330.934C278.603 331.375 278.862 331.794 279.162 332.183C279.178 332.203 279.189 332.225 279.196 332.249C279.202 332.273 279.204 332.298 279.201 332.323C279.197 332.348 279.189 332.371 279.177 332.393C279.164 332.414 279.148 332.433 279.128 332.448C279.098 332.477 279.059 332.495 279.017 332.497L279.014 332.494ZM311.681 332.211C311.631 332.215 311.582 332.198 311.545 332.164C311.507 332.131 311.484 332.085 311.481 332.035C311.478 331.985 311.495 331.935 311.528 331.898C311.562 331.86 311.608 331.838 311.658 331.835L313.159 331.651C313.184 331.647 313.21 331.648 313.234 331.655C313.258 331.661 313.281 331.672 313.301 331.688C313.321 331.703 313.337 331.723 313.349 331.745C313.361 331.767 313.369 331.791 313.371 331.816C313.377 331.866 313.363 331.917 313.332 331.956C313.301 331.996 313.256 332.022 313.206 332.028L311.705 332.211H311.681ZM316.685 331.6C316.639 331.6 316.595 331.583 316.56 331.553C316.526 331.522 316.504 331.48 316.499 331.435C316.493 331.385 316.507 331.334 316.538 331.295C316.569 331.255 316.614 331.229 316.664 331.223L318.167 331.041C318.191 331.038 318.216 331.04 318.24 331.047C318.264 331.054 318.286 331.065 318.306 331.08C318.325 331.096 318.342 331.115 318.354 331.136C318.366 331.158 318.374 331.182 318.377 331.206C318.38 331.231 318.378 331.256 318.371 331.28C318.364 331.304 318.353 331.326 318.337 331.346C318.322 331.365 318.303 331.381 318.281 331.394C318.26 331.406 318.236 331.413 318.211 331.416L316.71 331.598L316.685 331.6ZM321.69 330.99C321.643 330.99 321.599 330.973 321.564 330.943C321.53 330.912 321.508 330.87 321.503 330.825C321.497 330.775 321.511 330.724 321.542 330.685C321.573 330.645 321.618 330.619 321.668 330.613L323.169 330.429C323.219 330.423 323.269 330.437 323.309 330.468C323.348 330.499 323.374 330.544 323.38 330.594C323.386 330.644 323.372 330.694 323.341 330.733C323.31 330.773 323.265 330.799 323.215 330.805L321.713 330.988L321.69 330.99ZM326.695 330.38C326.645 330.383 326.596 330.366 326.559 330.333C326.521 330.3 326.498 330.253 326.495 330.203C326.492 330.153 326.509 330.104 326.542 330.066C326.575 330.029 326.622 330.006 326.672 330.003L328.173 329.819C328.198 329.815 328.223 329.817 328.248 329.823C328.272 329.829 328.295 329.841 328.314 329.856C328.334 329.872 328.35 329.891 328.362 329.913C328.374 329.935 328.381 329.96 328.383 329.985C328.386 330.009 328.384 330.034 328.377 330.058C328.371 330.082 328.359 330.105 328.344 330.124C328.329 330.144 328.31 330.16 328.288 330.172C328.266 330.184 328.242 330.192 328.218 330.195L326.717 330.378L326.695 330.38ZM331.699 329.768C331.652 329.768 331.606 329.749 331.571 329.716C331.537 329.684 331.516 329.639 331.513 329.591C331.51 329.544 331.525 329.497 331.555 329.46C331.586 329.423 331.629 329.399 331.676 329.393L333.177 329.209C333.202 329.206 333.227 329.208 333.251 329.214C333.275 329.221 333.298 329.232 333.318 329.248C333.337 329.263 333.354 329.282 333.366 329.304C333.378 329.326 333.386 329.35 333.389 329.375C333.394 329.424 333.38 329.474 333.349 329.514C333.318 329.553 333.273 329.578 333.224 329.585L331.722 329.768H331.699ZM336.703 329.158C336.656 329.158 336.61 329.139 336.575 329.106C336.541 329.074 336.52 329.029 336.517 328.981C336.514 328.934 336.529 328.887 336.56 328.85C336.59 328.813 336.633 328.789 336.68 328.783L338.181 328.599C338.206 328.596 338.231 328.597 338.256 328.603C338.28 328.61 338.303 328.621 338.323 328.637C338.342 328.652 338.359 328.671 338.371 328.693C338.383 328.715 338.39 328.74 338.393 328.765C338.399 328.815 338.385 328.865 338.354 328.905C338.323 328.944 338.278 328.97 338.228 328.976L336.727 329.158H336.703ZM341.686 328.431C341.64 328.432 341.596 328.417 341.56 328.388C341.525 328.359 341.501 328.318 341.494 328.273C341.486 328.228 341.495 328.182 341.52 328.143C341.544 328.104 341.581 328.075 341.625 328.062C342.085 327.903 342.522 327.681 342.921 327.401C342.962 327.372 343.013 327.361 343.062 327.37C343.111 327.378 343.155 327.406 343.184 327.447C343.212 327.488 343.224 327.539 343.215 327.588C343.206 327.637 343.178 327.681 343.137 327.71C342.709 328.009 342.241 328.247 341.747 328.418C341.729 328.426 341.709 328.431 341.689 328.434L341.686 328.431ZM277.352 327.819C277.306 327.819 277.262 327.802 277.228 327.771C277.194 327.741 277.171 327.699 277.165 327.654L276.926 326.166C276.922 326.119 276.937 326.072 276.966 326.035C276.996 325.998 277.038 325.973 277.085 325.965C277.131 325.957 277.179 325.968 277.219 325.993C277.259 326.019 277.287 326.059 277.299 326.105L277.539 327.593C277.543 327.617 277.542 327.642 277.536 327.666C277.531 327.691 277.52 327.713 277.506 327.734C277.491 327.754 277.473 327.771 277.451 327.784C277.43 327.797 277.407 327.805 277.382 327.809L277.352 327.819ZM345.085 324.967C345.066 324.967 345.047 324.964 345.029 324.957C345.005 324.95 344.983 324.938 344.964 324.922C344.945 324.906 344.929 324.887 344.918 324.865C344.906 324.843 344.899 324.819 344.897 324.794C344.894 324.77 344.897 324.745 344.905 324.721C345.052 324.257 345.133 323.773 345.144 323.286C345.145 323.237 345.165 323.19 345.201 323.155C345.236 323.12 345.283 323.101 345.333 323.101C345.358 323.102 345.382 323.107 345.405 323.117C345.427 323.127 345.448 323.142 345.465 323.16C345.482 323.178 345.495 323.199 345.504 323.222C345.513 323.245 345.517 323.27 345.516 323.294C345.505 323.818 345.419 324.337 345.26 324.835C345.247 324.871 345.223 324.902 345.192 324.924C345.16 324.946 345.123 324.959 345.085 324.959V324.967ZM276.552 322.841C276.506 322.841 276.463 322.824 276.428 322.794C276.394 322.763 276.373 322.721 276.367 322.676L276.126 321.188C276.122 321.163 276.123 321.137 276.129 321.113C276.135 321.088 276.147 321.065 276.162 321.045C276.177 321.024 276.197 321.008 276.219 320.995C276.241 320.983 276.266 320.975 276.291 320.972C276.315 320.967 276.34 320.968 276.365 320.973C276.389 320.979 276.412 320.989 276.432 321.003C276.452 321.018 276.469 321.036 276.482 321.058C276.495 321.079 276.504 321.103 276.507 321.127L276.747 322.615C276.751 322.639 276.75 322.664 276.745 322.688C276.739 322.713 276.729 322.735 276.714 322.755C276.7 322.776 276.682 322.793 276.661 322.806C276.64 322.819 276.616 322.828 276.592 322.832L276.552 322.841ZM345.346 319.944C345.296 319.943 345.248 319.923 345.213 319.888C345.178 319.853 345.158 319.805 345.158 319.755C345.158 319.259 345.146 318.763 345.134 318.244C345.133 318.194 345.152 318.145 345.187 318.109C345.222 318.073 345.269 318.052 345.32 318.051C345.345 318.048 345.371 318.051 345.395 318.06C345.419 318.068 345.441 318.082 345.459 318.1C345.478 318.117 345.492 318.139 345.501 318.163C345.511 318.186 345.515 318.212 345.513 318.237C345.525 318.757 345.531 319.262 345.536 319.752C345.536 319.802 345.516 319.85 345.481 319.886C345.446 319.922 345.398 319.943 345.348 319.944H345.346ZM275.749 317.856C275.703 317.855 275.659 317.838 275.624 317.808C275.59 317.777 275.568 317.736 275.562 317.69L275.322 316.202C275.315 316.177 275.314 316.15 275.318 316.124C275.323 316.098 275.332 316.073 275.347 316.051C275.361 316.029 275.38 316.01 275.402 315.995C275.424 315.981 275.449 315.971 275.475 315.967C275.501 315.963 275.528 315.964 275.554 315.97C275.579 315.977 275.603 315.989 275.624 316.005C275.645 316.022 275.662 316.042 275.674 316.066C275.687 316.089 275.694 316.115 275.696 316.141L275.935 317.629C275.939 317.654 275.938 317.68 275.932 317.705C275.926 317.729 275.915 317.752 275.899 317.773C275.884 317.793 275.864 317.81 275.842 317.822C275.82 317.835 275.795 317.843 275.77 317.846L275.749 317.856ZM345.202 314.903C345.153 314.903 345.107 314.884 345.071 314.851C345.036 314.817 345.015 314.772 345.012 314.723C344.987 314.229 344.958 313.727 344.926 313.215C344.923 313.165 344.94 313.116 344.973 313.078C345.006 313.04 345.053 313.017 345.103 313.014C345.128 313.012 345.153 313.015 345.176 313.023C345.2 313.031 345.222 313.043 345.24 313.06C345.259 313.076 345.274 313.096 345.285 313.119C345.296 313.141 345.302 313.166 345.303 313.19C345.336 313.703 345.364 314.207 345.391 314.703C345.392 314.728 345.388 314.753 345.38 314.776C345.372 314.8 345.359 314.821 345.342 314.84C345.325 314.858 345.305 314.873 345.282 314.884C345.26 314.894 345.235 314.9 345.21 314.901L345.202 314.903ZM274.944 312.878C274.898 312.878 274.854 312.861 274.819 312.83C274.785 312.8 274.763 312.758 274.757 312.713L274.517 311.225C274.513 311.2 274.514 311.174 274.521 311.149C274.527 311.125 274.538 311.101 274.553 311.081C274.569 311.061 274.588 311.044 274.61 311.032C274.633 311.019 274.657 311.011 274.682 311.008C274.707 311.004 274.732 311.004 274.756 311.01C274.781 311.015 274.803 311.025 274.824 311.04C274.844 311.054 274.861 311.073 274.874 311.094C274.887 311.115 274.895 311.139 274.899 311.164L275.139 312.651C275.143 312.677 275.141 312.702 275.135 312.727C275.129 312.752 275.118 312.775 275.102 312.795C275.087 312.815 275.067 312.832 275.045 312.845C275.023 312.857 274.999 312.865 274.973 312.868L274.944 312.878ZM344.829 309.873C344.782 309.873 344.738 309.856 344.703 309.825C344.669 309.795 344.646 309.753 344.64 309.707C344.592 309.211 344.541 308.715 344.475 308.205C344.469 308.155 344.484 308.105 344.515 308.066C344.546 308.027 344.592 308.002 344.642 307.996C344.692 307.991 344.741 308.005 344.78 308.037C344.82 308.068 344.845 308.113 344.85 308.163C344.908 308.669 344.964 309.172 345.015 309.671C345.02 309.72 345.005 309.769 344.974 309.807C344.944 309.845 344.899 309.87 344.85 309.876L344.829 309.873ZM274.143 307.9C274.098 307.9 274.053 307.883 274.019 307.853C273.985 307.822 273.963 307.78 273.957 307.735L273.686 306.049L275.071 305.872C275.096 305.868 275.121 305.869 275.146 305.876C275.17 305.882 275.193 305.893 275.213 305.909C275.232 305.924 275.249 305.944 275.261 305.966C275.273 305.988 275.28 306.012 275.282 306.037C275.289 306.087 275.275 306.138 275.244 306.178C275.213 306.218 275.167 306.244 275.117 306.251L274.125 306.378L274.334 307.677C274.338 307.702 274.336 307.728 274.33 307.753C274.324 307.778 274.313 307.801 274.297 307.821C274.282 307.842 274.262 307.859 274.24 307.872C274.218 307.884 274.194 307.892 274.168 307.895L274.143 307.9ZM278.595 305.807C278.549 305.807 278.505 305.79 278.47 305.76C278.436 305.73 278.413 305.688 278.407 305.642C278.401 305.592 278.415 305.542 278.446 305.502C278.477 305.463 278.522 305.437 278.572 305.431L280.073 305.239C280.098 305.234 280.124 305.235 280.149 305.241C280.173 305.247 280.197 305.258 280.217 305.273C280.237 305.289 280.253 305.309 280.265 305.331C280.277 305.354 280.283 305.379 280.285 305.404C280.291 305.454 280.277 305.505 280.246 305.545C280.215 305.585 280.17 305.611 280.12 305.617L278.619 305.809L278.595 305.807ZM283.596 305.168C283.55 305.165 283.505 305.146 283.472 305.113C283.439 305.081 283.419 305.037 283.416 304.99C283.413 304.944 283.427 304.898 283.456 304.861C283.484 304.824 283.525 304.799 283.571 304.791L285.072 304.599C285.097 304.595 285.123 304.595 285.148 304.601C285.172 304.608 285.195 304.619 285.215 304.634C285.235 304.65 285.252 304.67 285.263 304.692C285.275 304.714 285.282 304.739 285.284 304.764C285.29 304.814 285.276 304.865 285.245 304.904C285.214 304.944 285.169 304.97 285.119 304.976L283.619 305.168H283.596ZM344.212 304.87C344.166 304.869 344.122 304.852 344.088 304.822C344.054 304.792 344.031 304.75 344.025 304.705C343.951 304.209 343.87 303.713 343.785 303.217C343.777 303.167 343.789 303.117 343.818 303.076C343.847 303.035 343.891 303.007 343.941 302.999C343.965 302.994 343.99 302.995 344.015 303C344.039 303.005 344.062 303.015 344.082 303.03C344.103 303.044 344.12 303.062 344.133 303.083C344.146 303.105 344.155 303.128 344.159 303.153C344.243 303.648 344.324 304.144 344.399 304.65C344.403 304.675 344.402 304.701 344.395 304.726C344.389 304.75 344.378 304.773 344.362 304.793C344.347 304.813 344.327 304.83 344.305 304.842C344.283 304.855 344.259 304.863 344.233 304.865L344.212 304.87ZM288.597 304.526C288.549 304.526 288.503 304.508 288.468 304.475C288.433 304.443 288.412 304.398 288.409 304.35C288.406 304.303 288.421 304.255 288.451 304.218C288.481 304.181 288.525 304.157 288.572 304.151L290.073 303.958C290.098 303.954 290.123 303.955 290.148 303.961C290.172 303.967 290.195 303.979 290.215 303.994C290.235 304.01 290.251 304.029 290.263 304.051C290.275 304.073 290.283 304.098 290.285 304.123C290.288 304.148 290.286 304.173 290.28 304.197C290.273 304.221 290.262 304.244 290.246 304.263C290.231 304.283 290.212 304.299 290.19 304.312C290.168 304.324 290.144 304.332 290.119 304.335L288.62 304.526H288.597ZM293.598 303.888C293.551 303.886 293.507 303.867 293.474 303.834C293.44 303.801 293.42 303.757 293.417 303.711C293.414 303.664 293.428 303.618 293.457 303.581C293.486 303.545 293.527 303.52 293.573 303.511L295.074 303.318C295.099 303.314 295.124 303.315 295.149 303.321C295.173 303.328 295.196 303.339 295.216 303.354C295.236 303.37 295.252 303.389 295.264 303.412C295.276 303.434 295.283 303.458 295.286 303.483C295.289 303.508 295.287 303.533 295.28 303.557C295.274 303.581 295.263 303.604 295.247 303.624C295.232 303.643 295.213 303.66 295.191 303.672C295.169 303.684 295.145 303.692 295.12 303.695L293.621 303.888H293.598ZM298.598 303.247C298.548 303.25 298.499 303.233 298.462 303.2C298.424 303.167 298.401 303.121 298.398 303.071C298.394 303.021 298.411 302.971 298.444 302.934C298.477 302.896 298.524 302.873 298.574 302.87L300.075 302.678C300.1 302.674 300.125 302.676 300.149 302.682C300.173 302.689 300.196 302.7 300.216 302.715C300.236 302.731 300.252 302.75 300.264 302.772C300.276 302.794 300.284 302.818 300.286 302.843C300.29 302.868 300.288 302.893 300.281 302.917C300.275 302.942 300.263 302.964 300.248 302.984C300.233 303.003 300.213 303.02 300.192 303.032C300.17 303.044 300.146 303.052 300.121 303.055L298.622 303.247H298.598ZM303.599 302.607C303.553 302.607 303.509 302.591 303.474 302.56C303.44 302.53 303.418 302.487 303.412 302.442C303.406 302.392 303.42 302.341 303.451 302.302C303.482 302.262 303.528 302.236 303.578 302.23L305.077 302.038C305.102 302.034 305.128 302.035 305.152 302.041C305.176 302.048 305.199 302.059 305.219 302.074C305.239 302.09 305.256 302.109 305.268 302.132C305.28 302.154 305.287 302.178 305.289 302.204C305.292 302.228 305.29 302.254 305.284 302.278C305.277 302.302 305.266 302.324 305.25 302.344C305.235 302.364 305.216 302.38 305.194 302.392C305.172 302.405 305.148 302.412 305.123 302.415L303.624 302.607H303.599ZM308.6 301.967C308.554 301.968 308.509 301.951 308.475 301.92C308.44 301.89 308.418 301.848 308.413 301.802C308.407 301.752 308.421 301.701 308.452 301.661C308.483 301.621 308.528 301.595 308.578 301.589L310.078 301.397C310.103 301.393 310.128 301.395 310.152 301.401C310.177 301.407 310.199 301.419 310.219 301.434C310.239 301.45 310.255 301.469 310.267 301.491C310.28 301.513 310.287 301.537 310.289 301.562C310.293 301.587 310.291 301.612 310.284 301.636C310.278 301.66 310.266 301.683 310.251 301.703C310.236 301.722 310.217 301.739 310.195 301.751C310.173 301.763 310.149 301.771 310.124 301.774L308.625 301.966L308.6 301.967ZM313.601 301.327C313.554 301.325 313.51 301.306 313.477 301.273C313.443 301.24 313.423 301.197 313.42 301.15C313.417 301.104 313.431 301.057 313.46 301.021C313.489 300.984 313.53 300.959 313.576 300.951L315.077 300.759C315.102 300.755 315.127 300.756 315.151 300.763C315.176 300.769 315.198 300.781 315.218 300.796C315.238 300.811 315.254 300.831 315.267 300.853C315.279 300.875 315.286 300.899 315.289 300.924C315.292 300.949 315.29 300.974 315.283 300.998C315.277 301.022 315.266 301.045 315.25 301.065C315.235 301.084 315.216 301.101 315.194 301.113C315.172 301.125 315.148 301.133 315.123 301.136L313.624 301.327H313.601ZM318.601 300.688C318.555 300.685 318.511 300.666 318.477 300.633C318.444 300.601 318.424 300.557 318.421 300.51C318.418 300.464 318.432 300.418 318.461 300.381C318.49 300.344 318.531 300.319 318.577 300.311L320.078 300.119C320.103 300.115 320.128 300.116 320.153 300.122C320.177 300.128 320.2 300.139 320.22 300.155C320.24 300.171 320.256 300.19 320.268 300.212C320.28 300.235 320.287 300.259 320.289 300.284C320.293 300.309 320.291 300.334 320.284 300.358C320.278 300.382 320.266 300.405 320.251 300.425C320.236 300.444 320.216 300.461 320.195 300.473C320.173 300.485 320.149 300.493 320.124 300.496L318.625 300.688H318.601ZM323.602 300.048C323.552 300.051 323.503 300.034 323.466 300.001C323.428 299.968 323.405 299.921 323.402 299.871C323.399 299.821 323.416 299.772 323.449 299.734C323.482 299.697 323.529 299.674 323.579 299.671L325.078 299.479C325.103 299.475 325.129 299.477 325.153 299.483C325.178 299.489 325.2 299.5 325.22 299.516C325.24 299.531 325.257 299.551 325.269 299.573C325.281 299.595 325.288 299.619 325.29 299.645C325.296 299.695 325.282 299.745 325.251 299.785C325.22 299.824 325.175 299.85 325.125 299.856L323.625 300.048H323.602ZM343.299 299.912C343.256 299.912 343.214 299.897 343.181 299.87C343.147 299.843 343.124 299.806 343.114 299.764C343.004 299.271 342.891 298.781 342.775 298.294C342.763 298.245 342.771 298.193 342.797 298.15C342.823 298.107 342.865 298.076 342.914 298.064C342.938 298.058 342.964 298.056 342.988 298.06C343.013 298.064 343.037 298.072 343.058 298.086C343.08 298.099 343.098 298.116 343.113 298.137C343.127 298.157 343.137 298.18 343.142 298.205C343.261 298.696 343.375 299.189 343.485 299.683C343.495 299.732 343.485 299.783 343.458 299.825C343.431 299.867 343.388 299.897 343.339 299.907L343.299 299.912ZM328.603 299.416C328.553 299.419 328.504 299.403 328.466 299.369C328.429 299.336 328.406 299.29 328.403 299.24C328.4 299.19 328.417 299.14 328.45 299.103C328.483 299.065 328.53 299.043 328.58 299.04L330.079 298.848C330.104 298.843 330.13 298.844 330.154 298.85C330.179 298.856 330.202 298.868 330.222 298.883C330.242 298.899 330.258 298.918 330.27 298.941C330.282 298.963 330.289 298.988 330.291 299.013C330.294 299.038 330.292 299.063 330.286 299.087C330.279 299.111 330.268 299.134 330.252 299.153C330.237 299.173 330.218 299.19 330.196 299.202C330.174 299.214 330.15 299.222 330.126 299.225L328.626 299.416H328.603ZM333.604 298.777C333.554 298.78 333.505 298.763 333.467 298.73C333.43 298.696 333.407 298.65 333.404 298.6C333.401 298.55 333.418 298.501 333.451 298.463C333.484 298.426 333.531 298.403 333.581 298.4L335.08 298.208C335.105 298.204 335.131 298.204 335.155 298.21C335.18 298.217 335.203 298.228 335.223 298.243C335.243 298.259 335.259 298.279 335.271 298.301C335.283 298.323 335.29 298.348 335.292 298.373C335.298 298.423 335.284 298.474 335.253 298.513C335.222 298.553 335.176 298.579 335.126 298.585L333.627 298.777H333.604ZM338.604 298.137C338.554 298.14 338.505 298.123 338.468 298.09C338.43 298.057 338.408 298.01 338.404 297.96C338.401 297.91 338.418 297.861 338.451 297.823C338.485 297.786 338.531 297.763 338.581 297.76L340.081 297.568C340.106 297.564 340.131 297.565 340.156 297.571C340.18 297.577 340.203 297.589 340.223 297.604C340.243 297.62 340.259 297.639 340.271 297.662C340.283 297.684 340.29 297.708 340.292 297.734C340.298 297.784 340.284 297.834 340.253 297.874C340.222 297.913 340.177 297.939 340.127 297.945L338.628 298.137H338.604Z" fill="white"/>
<path d="M286.754 286.879L286.689 285.008C286.758 284.778 286.882 284.569 287.052 284.399C287.222 284.23 287.431 284.106 287.662 284.039C289.414 283.526 293.788 282.457 296.129 283.781L296.722 285.889L286.754 286.879Z" fill="url(#paint11_linear_1839_2047)"/>
<path d="M292.115 284.385C291.722 284.541 291.297 284.597 290.877 284.55C290.626 284.522 290.393 284.411 290.213 284.234C290.033 284.058 289.918 283.826 289.885 283.576L289.143 277.79L292.09 277.413L292.831 283.199C292.86 283.448 292.805 283.7 292.675 283.914C292.546 284.129 292.349 284.294 292.115 284.385Z" fill="url(#paint12_linear_1839_2047)"/>
<path d="M315.301 283.227L315.236 281.354C315.305 281.125 315.43 280.916 315.599 280.747C315.769 280.578 315.979 280.454 316.208 280.387C317.961 279.873 322.335 278.803 324.676 280.128L325.269 282.235L315.301 283.227Z" fill="url(#paint13_linear_1839_2047)"/>
<path d="M320.662 280.731C320.269 280.884 319.843 280.938 319.424 280.888C319.174 280.86 318.94 280.749 318.76 280.572C318.58 280.396 318.465 280.164 318.432 279.914L317.605 273.512L320.553 273.135L321.38 279.532C321.411 279.784 321.357 280.038 321.227 280.255C321.097 280.472 320.898 280.64 320.662 280.731Z" fill="url(#paint14_linear_1839_2047)"/>
<path d="M289.026 279.233L320.589 274.128C320.938 274.074 321.258 273.901 321.495 273.639C321.732 273.376 321.871 273.04 321.888 272.687C321.962 271.33 321.822 269.97 321.474 268.656C321.234 267.822 320.707 267.099 319.986 266.615C319.266 266.132 318.397 265.918 317.534 266.011C311.603 266.626 296.549 268.557 288.672 272.902C288.263 273.128 287.915 273.448 287.656 273.837C287.397 274.226 287.235 274.671 287.184 275.135C287.043 276.222 287.156 277.328 287.515 278.364C287.628 278.661 287.84 278.91 288.115 279.068C288.39 279.227 288.712 279.285 289.026 279.233Z" fill="url(#paint15_linear_1839_2047)"/>
<path d="M288.247 278.021C288.132 278.023 288.021 277.984 287.931 277.914C287.84 277.843 287.777 277.743 287.751 277.631C287.574 276.795 287.532 275.936 287.629 275.087C287.702 274.577 287.904 274.094 288.215 273.684C288.527 273.274 288.938 272.95 289.409 272.743C291.125 271.992 294.422 270.667 297.207 270.23C297.275 270.213 297.346 270.21 297.415 270.222C297.485 270.233 297.551 270.259 297.609 270.298C297.668 270.337 297.718 270.387 297.756 270.446C297.794 270.505 297.819 270.571 297.83 270.641C297.841 270.71 297.837 270.781 297.819 270.849C297.801 270.917 297.769 270.98 297.725 271.035C297.681 271.089 297.626 271.134 297.563 271.167C297.501 271.199 297.433 271.218 297.363 271.222C294.589 271.655 291.16 273.072 289.814 273.662C289.5 273.8 289.227 274.015 289.019 274.287C288.812 274.559 288.677 274.88 288.627 275.219C288.549 275.947 288.585 276.682 288.733 277.398C288.749 277.463 288.752 277.53 288.742 277.596C288.732 277.661 288.708 277.724 288.673 277.781C288.638 277.837 288.592 277.886 288.537 277.924C288.483 277.962 288.421 277.989 288.356 278.003C288.321 278.013 288.284 278.019 288.247 278.021Z" fill="url(#paint16_linear_1839_2047)"/>
<path d="M271.955 288.041C282.178 286.6 326.419 280.465 339.485 280.371C340.033 280.365 340.568 280.53 341.018 280.842C341.468 281.154 341.81 281.598 341.997 282.113C343.197 285.452 345.749 293.242 346.581 301.18C346.632 301.707 346.501 302.235 346.21 302.677C345.919 303.119 345.486 303.448 344.982 303.609L316.32 312.924L305.885 314.263L273.791 312.046C273.243 312.011 272.722 311.793 272.311 311.427C271.901 311.061 271.625 310.569 271.526 310.028C270.814 306.07 269.3 296.768 269.607 290.615C269.637 289.98 269.889 289.375 270.317 288.905C270.746 288.435 271.325 288.13 271.955 288.041Z" fill="url(#paint17_linear_1839_2047)"/>
<path d="M305.835 311.884L304.29 311.78C304.265 311.779 304.241 311.772 304.219 311.762C304.196 311.751 304.177 311.736 304.16 311.717C304.144 311.698 304.132 311.677 304.124 311.653C304.116 311.63 304.113 311.605 304.114 311.58C304.12 311.531 304.144 311.486 304.181 311.453C304.219 311.42 304.267 311.403 304.316 311.403L305.825 311.508L306.634 311.402C306.659 311.398 306.684 311.399 306.709 311.405C306.733 311.411 306.756 311.422 306.776 311.438C306.796 311.453 306.812 311.473 306.824 311.495C306.836 311.517 306.844 311.542 306.845 311.567C306.852 311.617 306.838 311.668 306.807 311.708C306.776 311.748 306.73 311.774 306.68 311.78L305.835 311.884ZM300.782 311.539H300.768L299.261 311.435C299.236 311.433 299.212 311.427 299.189 311.416C299.167 311.405 299.147 311.39 299.13 311.371C299.114 311.352 299.101 311.33 299.093 311.307C299.085 311.283 299.082 311.258 299.084 311.233C299.09 311.184 299.114 311.139 299.151 311.106C299.188 311.074 299.236 311.057 299.286 311.058L300.795 311.162C300.842 311.168 300.886 311.191 300.916 311.227C300.947 311.263 300.964 311.31 300.962 311.357C300.96 311.405 300.941 311.45 300.907 311.484C300.874 311.518 300.829 311.538 300.782 311.541V311.539ZM310.158 311.329C310.108 311.332 310.059 311.316 310.021 311.283C309.984 311.25 309.961 311.203 309.958 311.153C309.954 311.103 309.971 311.054 310.004 311.016C310.037 310.978 310.084 310.955 310.134 310.952L311.635 310.76C311.66 310.756 311.685 310.757 311.71 310.763C311.734 310.77 311.757 310.781 311.777 310.796C311.797 310.812 311.813 310.831 311.825 310.854C311.837 310.876 311.844 310.9 311.846 310.926C311.852 310.976 311.838 311.026 311.807 311.066C311.776 311.105 311.731 311.131 311.681 311.137L310.18 311.329H310.158ZM295.753 311.192H295.74L294.23 311.088C294.206 311.086 294.181 311.079 294.159 311.068C294.137 311.057 294.117 311.042 294.101 311.023C294.085 311.004 294.072 310.983 294.064 310.959C294.056 310.936 294.053 310.911 294.055 310.886C294.06 310.837 294.084 310.791 294.121 310.758C294.159 310.726 294.207 310.709 294.257 310.711L295.766 310.815C295.813 310.821 295.857 310.844 295.888 310.88C295.918 310.916 295.935 310.963 295.933 311.01C295.931 311.058 295.912 311.103 295.879 311.137C295.845 311.171 295.8 311.191 295.753 311.193V311.192ZM290.724 310.845H290.711L289.201 310.74C289.177 310.739 289.152 310.732 289.13 310.721C289.108 310.71 289.088 310.695 289.072 310.676C289.056 310.657 289.043 310.636 289.035 310.612C289.028 310.588 289.024 310.564 289.026 310.539C289.03 310.489 289.054 310.443 289.092 310.41C289.129 310.378 289.178 310.361 289.228 310.364L290.736 310.468C290.783 310.473 290.826 310.496 290.857 310.532C290.888 310.568 290.905 310.615 290.903 310.662C290.902 310.71 290.882 310.755 290.849 310.789C290.816 310.823 290.771 310.844 290.724 310.846V310.845ZM315.159 310.689C315.109 310.693 315.06 310.676 315.022 310.643C314.985 310.61 314.962 310.563 314.958 310.513C314.955 310.463 314.972 310.414 315.005 310.376C315.038 310.339 315.084 310.316 315.134 310.312L315.734 310.236L316.561 309.964C316.609 309.949 316.661 309.953 316.706 309.976C316.75 309.999 316.784 310.038 316.801 310.086C316.816 310.134 316.811 310.185 316.789 310.23C316.766 310.275 316.726 310.308 316.678 310.324L315.817 310.603L315.181 310.688L315.159 310.689ZM285.693 310.497H285.68L284.173 310.393C284.148 310.392 284.123 310.385 284.101 310.375C284.078 310.364 284.058 310.348 284.042 310.329C284.026 310.311 284.013 310.289 284.005 310.265C283.997 310.242 283.994 310.217 283.996 310.192C284.002 310.143 284.026 310.098 284.063 310.066C284.101 310.034 284.148 310.016 284.197 310.016L285.707 310.121C285.754 310.126 285.797 310.15 285.828 310.186C285.859 310.222 285.875 310.268 285.874 310.316C285.872 310.363 285.853 310.409 285.819 310.443C285.786 310.477 285.741 310.497 285.693 310.499V310.497ZM280.665 310.15H280.651L279.142 310.046C279.117 310.044 279.093 310.038 279.071 310.027C279.049 310.016 279.029 310.001 279.013 309.982C278.996 309.963 278.984 309.941 278.976 309.918C278.968 309.894 278.965 309.869 278.967 309.844C278.972 309.795 278.996 309.75 279.033 309.717C279.071 309.685 279.119 309.668 279.169 309.669L280.676 309.773C280.723 309.779 280.767 309.802 280.798 309.838C280.829 309.874 280.845 309.92 280.844 309.968C280.842 310.015 280.823 310.061 280.79 310.095C280.757 310.129 280.712 310.149 280.665 310.152V310.15ZM275.634 309.803H275.621L274.112 309.699C274.087 309.697 274.063 309.691 274.04 309.68C274.018 309.669 273.998 309.653 273.982 309.635C273.966 309.616 273.953 309.594 273.945 309.571C273.938 309.547 273.935 309.522 273.936 309.497C273.944 309.449 273.969 309.405 274.005 309.373C274.042 309.341 274.089 309.323 274.138 309.322L275.647 309.426C275.695 309.432 275.738 309.455 275.769 309.491C275.8 309.528 275.816 309.574 275.814 309.622C275.813 309.669 275.793 309.714 275.76 309.748C275.726 309.782 275.682 309.802 275.634 309.805V309.803ZM319.978 309.241C319.932 309.242 319.888 309.227 319.853 309.198C319.818 309.169 319.795 309.128 319.787 309.083C319.78 309.038 319.79 308.992 319.814 308.953C319.838 308.914 319.875 308.886 319.919 308.872L321.358 308.405C321.406 308.39 321.458 308.395 321.502 308.418C321.546 308.441 321.58 308.48 321.596 308.527C321.612 308.575 321.607 308.627 321.584 308.671C321.561 308.716 321.522 308.749 321.474 308.765L320.036 309.233C320.017 309.238 319.997 309.241 319.976 309.241H319.978ZM324.772 307.684C324.727 307.683 324.684 307.667 324.65 307.637C324.616 307.608 324.594 307.567 324.587 307.523C324.58 307.479 324.589 307.433 324.612 307.395C324.636 307.357 324.672 307.328 324.714 307.314L326.153 306.847C326.199 306.836 326.248 306.843 326.29 306.866C326.331 306.89 326.363 306.928 326.378 306.973C326.392 307.019 326.39 307.068 326.37 307.112C326.35 307.155 326.314 307.189 326.27 307.208L324.832 307.674C324.812 307.681 324.791 307.684 324.77 307.684H324.772ZM273.455 306.305C273.41 306.305 273.365 306.288 273.331 306.258C273.297 306.227 273.275 306.185 273.27 306.14C273.194 305.662 273.116 305.161 273.04 304.642C273.033 304.593 273.046 304.542 273.076 304.502C273.106 304.462 273.15 304.435 273.2 304.428C273.249 304.421 273.3 304.433 273.34 304.463C273.38 304.493 273.407 304.538 273.414 304.587C273.492 305.105 273.568 305.604 273.642 306.075C273.646 306.1 273.645 306.126 273.639 306.151C273.632 306.175 273.621 306.198 273.606 306.218C273.59 306.238 273.571 306.255 273.549 306.268C273.526 306.28 273.502 306.288 273.477 306.29L273.455 306.305ZM329.568 306.125C329.528 306.125 329.489 306.112 329.457 306.088C329.425 306.065 329.4 306.032 329.388 305.994C329.38 305.971 329.377 305.946 329.379 305.921C329.381 305.896 329.387 305.872 329.399 305.85C329.41 305.828 329.425 305.808 329.444 305.792C329.463 305.776 329.485 305.764 329.508 305.756L330.947 305.288C330.995 305.274 331.047 305.278 331.091 305.301C331.136 305.324 331.17 305.363 331.186 305.411C331.201 305.459 331.197 305.51 331.174 305.555C331.151 305.6 331.112 305.633 331.064 305.649L329.626 306.117C329.606 306.122 329.586 306.125 329.566 306.125H329.568ZM334.362 304.568C334.317 304.567 334.274 304.551 334.24 304.521C334.206 304.492 334.184 304.451 334.177 304.407C334.17 304.363 334.179 304.317 334.202 304.279C334.226 304.241 334.262 304.212 334.304 304.197L335.742 303.731C335.79 303.716 335.841 303.721 335.886 303.743C335.93 303.766 335.964 303.805 335.98 303.852C335.988 303.875 335.991 303.9 335.989 303.925C335.987 303.95 335.981 303.974 335.97 303.996C335.958 304.018 335.943 304.038 335.924 304.054C335.905 304.07 335.883 304.082 335.86 304.09L334.422 304.558C334.402 304.564 334.381 304.568 334.36 304.568H334.362ZM339.156 303.009C339.111 303.008 339.068 302.992 339.034 302.963C338.999 302.934 338.977 302.893 338.97 302.849C338.962 302.804 338.971 302.759 338.995 302.72C339.018 302.682 339.054 302.653 339.097 302.638L340.535 302.172C340.583 302.158 340.634 302.162 340.679 302.185C340.723 302.207 340.758 302.246 340.775 302.293C340.79 302.341 340.785 302.393 340.763 302.438C340.74 302.483 340.7 302.517 340.652 302.533L339.214 302.999C339.195 303.005 339.176 303.009 339.156 303.009ZM343.95 301.45C343.91 301.45 343.872 301.437 343.839 301.413C343.807 301.39 343.783 301.357 343.77 301.319C343.759 301.286 343.758 301.25 343.766 301.216C343.775 301.181 343.793 301.15 343.818 301.126C343.77 300.695 343.714 300.265 343.653 299.835C343.647 299.785 343.661 299.734 343.691 299.694C343.722 299.654 343.768 299.628 343.818 299.621C343.843 299.618 343.868 299.62 343.892 299.626C343.916 299.633 343.939 299.644 343.959 299.659C343.979 299.675 343.995 299.694 344.007 299.716C344.019 299.738 344.027 299.762 344.03 299.787C344.094 300.263 344.154 300.741 344.205 301.22L344.221 301.372L344.005 301.443C343.987 301.448 343.969 301.45 343.95 301.45ZM272.751 301.309C272.705 301.309 272.66 301.293 272.626 301.262C272.591 301.232 272.569 301.19 272.563 301.144C272.503 300.646 272.448 300.144 272.397 299.638C272.396 299.59 272.412 299.543 272.443 299.507C272.475 299.471 272.519 299.448 272.567 299.442C272.614 299.437 272.662 299.45 272.701 299.479C272.739 299.507 272.765 299.549 272.774 299.597C272.827 300.093 272.887 300.602 272.939 301.098C272.943 301.122 272.941 301.147 272.934 301.171C272.928 301.195 272.916 301.218 272.901 301.237C272.886 301.257 272.866 301.273 272.845 301.285C272.823 301.297 272.799 301.305 272.774 301.308L272.751 301.309ZM343.276 296.515C343.232 296.515 343.189 296.5 343.155 296.472C343.122 296.444 343.099 296.405 343.091 296.361C342.995 295.866 342.896 295.37 342.793 294.874C342.784 294.825 342.795 294.776 342.822 294.735C342.85 294.694 342.892 294.666 342.94 294.656C342.988 294.646 343.038 294.655 343.079 294.681C343.121 294.707 343.15 294.748 343.162 294.796C343.266 295.292 343.367 295.788 343.461 296.284C343.47 296.333 343.459 296.384 343.431 296.426C343.403 296.467 343.36 296.496 343.31 296.505L343.276 296.515ZM272.26 296.29C272.212 296.29 272.166 296.272 272.131 296.239C272.096 296.206 272.075 296.161 272.072 296.113C272.035 295.603 272.005 295.097 271.984 294.599C271.983 294.574 271.986 294.55 271.994 294.526C272.003 294.503 272.015 294.481 272.032 294.463C272.049 294.445 272.069 294.43 272.091 294.419C272.113 294.408 272.138 294.402 272.163 294.401C272.188 294.398 272.213 294.4 272.238 294.408C272.262 294.416 272.284 294.428 272.303 294.445C272.322 294.463 272.337 294.484 272.347 294.507C272.357 294.53 272.362 294.556 272.361 294.581C272.383 295.077 272.412 295.58 272.449 296.089C272.452 296.139 272.435 296.188 272.402 296.226C272.369 296.264 272.322 296.287 272.272 296.29H272.26ZM342.173 291.594C342.131 291.594 342.09 291.58 342.057 291.554C342.024 291.528 342 291.492 341.99 291.452C341.863 290.952 341.735 290.466 341.604 289.992C341.598 289.968 341.596 289.943 341.599 289.918C341.602 289.894 341.61 289.87 341.622 289.848C341.634 289.827 341.651 289.808 341.67 289.793C341.69 289.778 341.713 289.767 341.737 289.76C341.761 289.753 341.786 289.751 341.81 289.754C341.835 289.757 341.859 289.765 341.881 289.777C341.902 289.79 341.921 289.806 341.936 289.826C341.951 289.846 341.962 289.869 341.968 289.893C342.099 290.367 342.228 290.856 342.357 291.357C342.369 291.406 342.362 291.458 342.337 291.501C342.311 291.544 342.27 291.576 342.221 291.589C342.205 291.592 342.189 291.594 342.173 291.594ZM272.141 291.25C272.116 291.249 272.092 291.243 272.069 291.233C272.046 291.223 272.026 291.208 272.009 291.19C271.992 291.171 271.979 291.15 271.97 291.126C271.962 291.103 271.958 291.078 271.959 291.053L271.972 290.731C271.976 290.645 272.01 290.563 272.068 290.499C272.126 290.435 272.204 290.393 272.29 290.38L273.221 290.25C273.246 290.245 273.271 290.246 273.296 290.252C273.321 290.258 273.344 290.27 273.364 290.285C273.384 290.301 273.401 290.32 273.413 290.343C273.425 290.365 273.432 290.39 273.434 290.415C273.437 290.44 273.436 290.465 273.429 290.49C273.423 290.514 273.411 290.537 273.396 290.557C273.381 290.576 273.361 290.593 273.34 290.605C273.318 290.618 273.293 290.626 273.268 290.628L272.338 290.759V291.073C272.335 291.122 272.312 291.169 272.276 291.202C272.239 291.235 272.19 291.252 272.141 291.25ZM276.738 290.137C276.69 290.138 276.644 290.12 276.609 290.087C276.574 290.055 276.552 290.01 276.549 289.962C276.545 289.914 276.56 289.867 276.591 289.83C276.621 289.793 276.664 289.768 276.712 289.762L278.211 289.554C278.236 289.55 278.262 289.551 278.287 289.557C278.311 289.563 278.334 289.574 278.354 289.59C278.374 289.605 278.391 289.625 278.403 289.647C278.415 289.669 278.422 289.694 278.425 289.719C278.431 289.769 278.417 289.82 278.386 289.86C278.355 289.9 278.309 289.926 278.259 289.932L276.76 290.139L276.738 290.137ZM281.734 289.451C281.688 289.449 281.643 289.43 281.61 289.397C281.577 289.364 281.557 289.32 281.554 289.274C281.551 289.227 281.565 289.181 281.594 289.145C281.622 289.108 281.664 289.083 281.709 289.074L283.209 288.871C283.234 288.868 283.259 288.869 283.283 288.876C283.308 288.882 283.33 288.893 283.35 288.909C283.37 288.924 283.387 288.943 283.399 288.965C283.411 288.987 283.419 289.011 283.422 289.036C283.428 289.087 283.414 289.137 283.383 289.177C283.352 289.217 283.307 289.243 283.257 289.25L281.759 289.453L281.734 289.451ZM286.733 288.777C286.683 288.78 286.634 288.763 286.596 288.73C286.559 288.697 286.536 288.651 286.532 288.601C286.529 288.551 286.546 288.502 286.579 288.464C286.612 288.426 286.659 288.403 286.709 288.4L288.208 288.2C288.258 288.194 288.308 288.208 288.348 288.239C288.388 288.27 288.414 288.315 288.421 288.365C288.427 288.415 288.413 288.466 288.382 288.505C288.351 288.545 288.306 288.571 288.256 288.577L286.756 288.777H286.733ZM291.732 288.116C291.682 288.119 291.633 288.102 291.596 288.069C291.558 288.036 291.535 287.99 291.532 287.94C291.528 287.89 291.545 287.84 291.578 287.803C291.611 287.765 291.658 287.742 291.708 287.739L293.207 287.542C293.232 287.539 293.257 287.54 293.281 287.547C293.305 287.553 293.327 287.564 293.347 287.579C293.367 287.594 293.383 287.613 293.396 287.635C293.408 287.656 293.416 287.68 293.419 287.705C293.423 287.729 293.421 287.754 293.415 287.778C293.408 287.802 293.397 287.825 293.382 287.845C293.367 287.864 293.348 287.881 293.327 287.893C293.305 287.906 293.281 287.914 293.257 287.917L291.757 288.114L291.732 288.116ZM296.733 287.466C296.683 287.469 296.634 287.452 296.597 287.419C296.559 287.386 296.536 287.339 296.533 287.289C296.53 287.239 296.547 287.19 296.58 287.152C296.613 287.115 296.66 287.092 296.71 287.089L298.211 286.896C298.236 286.892 298.261 286.893 298.285 286.9C298.309 286.906 298.332 286.917 298.352 286.933C298.371 286.948 298.388 286.968 298.4 286.99C298.412 287.012 298.419 287.036 298.421 287.061C298.424 287.086 298.423 287.111 298.416 287.135C298.409 287.159 298.398 287.182 298.383 287.201C298.367 287.221 298.348 287.237 298.326 287.25C298.305 287.262 298.281 287.27 298.256 287.272L296.756 287.466H296.733ZM301.769 286.826L301.721 286.451L303.209 286.264C303.233 286.26 303.259 286.262 303.283 286.268C303.307 286.275 303.33 286.286 303.35 286.301C303.37 286.317 303.386 286.336 303.398 286.358C303.41 286.38 303.418 286.404 303.42 286.429C303.426 286.479 303.412 286.53 303.381 286.569C303.35 286.609 303.305 286.635 303.255 286.641L301.769 286.826ZM340.794 286.747C340.754 286.746 340.715 286.734 340.682 286.71C340.65 286.686 340.625 286.653 340.613 286.615C340.447 286.1 340.298 285.623 340.151 285.175C340.144 285.151 340.141 285.126 340.143 285.102C340.144 285.077 340.151 285.053 340.162 285.031C340.174 285.009 340.189 284.989 340.208 284.973C340.227 284.957 340.248 284.944 340.272 284.937C340.296 284.929 340.32 284.926 340.345 284.928C340.37 284.93 340.394 284.936 340.416 284.948C340.438 284.959 340.458 284.974 340.474 284.993C340.49 285.012 340.502 285.034 340.51 285.057C340.658 285.504 340.813 285.985 340.975 286.5C340.99 286.548 340.985 286.6 340.962 286.645C340.939 286.69 340.899 286.723 340.851 286.739C340.832 286.742 340.813 286.744 340.794 286.743V286.747ZM306.74 286.208C306.69 286.211 306.641 286.194 306.603 286.161C306.566 286.128 306.543 286.081 306.54 286.031C306.537 285.981 306.553 285.932 306.587 285.894C306.62 285.857 306.667 285.834 306.717 285.831L308.218 285.649C308.267 285.644 308.317 285.658 308.356 285.689C308.395 285.72 308.421 285.765 308.428 285.814C308.431 285.839 308.429 285.864 308.422 285.888C308.415 285.912 308.404 285.934 308.388 285.954C308.373 285.973 308.354 285.99 308.332 286.002C308.311 286.014 308.287 286.021 308.262 286.024L306.763 286.206L306.74 286.208ZM311.744 285.608C311.694 285.611 311.645 285.593 311.607 285.56C311.57 285.527 311.547 285.48 311.545 285.43C311.542 285.38 311.559 285.331 311.592 285.294C311.625 285.256 311.672 285.234 311.722 285.231L313.225 285.054C313.25 285.051 313.275 285.052 313.298 285.059C313.322 285.066 313.345 285.077 313.364 285.093C313.384 285.108 313.4 285.127 313.412 285.149C313.423 285.171 313.431 285.195 313.433 285.219C313.436 285.244 313.435 285.269 313.428 285.293C313.422 285.317 313.41 285.339 313.395 285.359C313.379 285.379 313.36 285.395 313.338 285.407C313.317 285.419 313.293 285.427 313.268 285.429L311.765 285.606L311.744 285.608ZM316.753 285.029C316.728 285.03 316.703 285.027 316.68 285.019C316.656 285.01 316.635 284.998 316.617 284.981C316.598 284.964 316.583 284.944 316.573 284.922C316.562 284.9 316.556 284.875 316.554 284.851C316.553 284.826 316.557 284.801 316.565 284.778C316.573 284.754 316.586 284.733 316.603 284.714C316.619 284.696 316.639 284.681 316.662 284.67C316.684 284.66 316.708 284.654 316.733 284.652L318.236 284.487C318.285 284.481 318.335 284.496 318.374 284.527C318.413 284.559 318.438 284.604 318.444 284.654C318.449 284.704 318.435 284.754 318.404 284.793C318.372 284.832 318.327 284.857 318.277 284.862L316.774 285.028L316.753 285.029ZM321.765 284.482C321.715 284.485 321.666 284.467 321.629 284.434C321.592 284.4 321.569 284.353 321.567 284.303C321.564 284.253 321.581 284.204 321.615 284.167C321.648 284.13 321.695 284.108 321.745 284.105L323.25 283.94C323.275 283.935 323.302 283.935 323.327 283.941C323.353 283.947 323.377 283.958 323.398 283.974C323.419 283.99 323.437 284.01 323.45 284.033C323.463 284.055 323.471 284.081 323.474 284.107C323.476 284.133 323.474 284.159 323.466 284.184C323.458 284.209 323.445 284.232 323.427 284.252C323.41 284.272 323.389 284.288 323.365 284.299C323.341 284.31 323.316 284.316 323.289 284.317L321.785 284.472L321.765 284.482ZM326.782 283.976C326.758 283.977 326.733 283.974 326.71 283.965C326.686 283.957 326.665 283.944 326.646 283.927C326.628 283.911 326.613 283.891 326.603 283.868C326.592 283.846 326.586 283.821 326.585 283.797C326.584 283.772 326.587 283.747 326.596 283.724C326.604 283.701 326.617 283.679 326.634 283.661C326.65 283.642 326.67 283.628 326.693 283.617C326.715 283.606 326.739 283.6 326.764 283.599L328.27 283.459C328.295 283.456 328.319 283.458 328.343 283.464C328.367 283.471 328.389 283.482 328.408 283.498C328.428 283.513 328.444 283.532 328.455 283.554C328.467 283.576 328.474 283.599 328.477 283.624C328.482 283.673 328.467 283.722 328.436 283.761C328.405 283.799 328.361 283.824 328.312 283.831L326.806 283.971L326.782 283.976ZM331.805 283.531C331.757 283.529 331.712 283.509 331.678 283.476C331.645 283.442 331.625 283.397 331.623 283.349C331.621 283.301 331.637 283.255 331.668 283.218C331.699 283.182 331.742 283.159 331.79 283.153C332.31 283.112 332.813 283.072 333.299 283.037C333.349 283.033 333.398 283.05 333.436 283.082C333.474 283.115 333.498 283.162 333.502 283.212C333.505 283.262 333.489 283.311 333.456 283.349C333.424 283.387 333.377 283.41 333.327 283.414L331.819 283.53L331.805 283.531ZM336.835 283.201C336.788 283.198 336.743 283.177 336.71 283.143C336.677 283.109 336.658 283.063 336.657 283.016C336.656 282.969 336.672 282.922 336.704 282.886C336.735 282.851 336.778 282.828 336.825 282.822C337.366 282.796 337.872 282.776 338.339 282.763C338.389 282.763 338.436 282.782 338.471 282.816C338.506 282.85 338.527 282.897 338.528 282.946C338.529 282.971 338.525 282.996 338.516 283.019C338.507 283.042 338.494 283.063 338.477 283.081C338.46 283.099 338.439 283.114 338.416 283.124C338.394 283.134 338.369 283.139 338.344 283.14C337.878 283.154 337.376 283.174 336.837 283.199L336.835 283.201Z" fill="white"/>
<path d="M315.897 317.431L306.757 318.601C306.18 318.676 305.595 318.536 305.113 318.209C304.631 317.882 304.286 317.39 304.142 316.826L301.961 308.165C301.88 307.839 301.869 307.499 301.928 307.168C301.988 306.837 302.117 306.523 302.307 306.245C302.497 305.968 302.744 305.734 303.031 305.559C303.319 305.384 303.64 305.272 303.973 305.231L314.953 303.825C315.281 303.782 315.614 303.808 315.931 303.901C316.248 303.994 316.542 304.151 316.794 304.364C317.047 304.577 317.252 304.84 317.398 305.137C317.543 305.433 317.625 305.757 317.638 306.087L317.98 314.982C318.002 315.577 317.8 316.158 317.414 316.611C317.029 317.064 316.488 317.357 315.897 317.431Z" fill="url(#paint18_linear_1839_2047)"/>
<path d="M314.565 315.958L307.609 316.847C307.171 316.901 306.728 316.794 306.363 316.546C305.998 316.297 305.735 315.924 305.625 315.497L303.972 308.906C303.91 308.657 303.901 308.398 303.947 308.146C303.992 307.894 304.09 307.655 304.235 307.444C304.38 307.233 304.568 307.055 304.787 306.922C305.006 306.789 305.25 306.704 305.504 306.672L313.863 305.603C314.112 305.57 314.365 305.59 314.606 305.66C314.847 305.731 315.071 305.851 315.263 306.013C315.455 306.175 315.611 306.375 315.722 306.601C315.832 306.826 315.894 307.072 315.904 307.323L316.164 314.101C316.177 314.554 316.02 314.996 315.724 315.339C315.428 315.683 315.015 315.903 314.565 315.958Z" fill="url(#paint19_linear_1839_2047)"/>
<path d="M309.129 245.861C311.278 254.77 311.342 263.485 311.015 266.659C310.954 267.238 310.692 267.777 310.274 268.182C309.856 268.587 309.309 268.832 308.729 268.875C307.366 268.969 305.512 269.095 303.853 269.19C302.035 269.295 300.008 268.144 298.656 267.18C298.508 267.076 298.329 267.024 298.148 267.033C297.966 267.041 297.793 267.11 297.656 267.229C297.518 267.347 297.424 267.508 297.388 267.685C297.352 267.863 297.377 268.048 297.457 268.21C298.119 269.509 299.276 270.525 300.422 271.404C301.111 271.928 303.397 272.857 303.232 273.884C303.16 274.207 303.003 274.504 302.776 274.745C301.503 276.272 299.577 277.087 297.677 277.671C297.431 277.72 297.203 277.834 297.016 278.002C296.97 279.23 300.75 280.595 301.726 280.919C303.187 281.418 304.737 281.598 306.274 281.448C310.076 281.048 313.59 278.423 315.639 275.257C321.117 266.793 323.949 256.577 324.984 248.758C319.899 243.674 312.205 244.965 309.129 245.861Z" fill="url(#paint20_linear_1839_2047)"/>
<path d="M324.994 249.571C329.058 218.875 305.401 195.273 305.401 195.273L291.328 211.681C302.014 225 307.093 237.204 309.414 246.79C312.49 245.894 319.899 244.478 324.994 249.571Z" fill="#77BE1D"/>
<path d="M309.078 246.64C308.883 246.64 308.694 246.575 308.54 246.455C308.387 246.335 308.277 246.168 308.23 245.979C305.371 234.162 299.342 222.463 290.313 211.21C290.168 211.03 290.101 210.799 290.126 210.57C290.151 210.34 290.267 210.129 290.447 209.985C290.627 209.84 290.857 209.773 291.087 209.798C291.317 209.823 291.527 209.938 291.672 210.119C300.863 221.573 307.005 233.501 309.926 245.569C309.957 245.697 309.958 245.83 309.93 245.959C309.901 246.088 309.844 246.209 309.763 246.312C309.681 246.416 309.577 246.5 309.458 246.557C309.34 246.615 309.21 246.645 309.078 246.645V246.64Z" fill="#2F305C"/>
<path d="M118.465 428.611C118.469 428.458 118.454 428.306 118.419 428.157C116.156 419.183 104.921 413.594 104.921 413.594L100.469 413.948C97.9102 421.858 98.2391 426.709 98.6508 428.869C98.6623 428.93 98.6805 428.987 98.6971 429.046C102.367 429.369 109.927 429.583 118.465 428.611Z" fill="#063022"/>
<path d="M98.6973 429.041C98.7795 429.386 98.9548 429.701 99.2041 429.952C99.4534 430.204 99.767 430.382 100.111 430.468C105.335 431.565 113.637 430.683 117.123 430.226C117.892 430.126 118.446 429.415 118.467 428.611C109.927 429.583 102.367 429.368 98.6973 429.041Z" fill="#021E14"/>
<path d="M98.6797 407.312L100.566 416.39C100.62 416.701 100.772 416.988 101 417.207C101.228 417.427 101.52 417.568 101.834 417.61C102.806 417.708 103.786 417.693 104.755 417.563C105.727 417.421 106.408 416.433 106.233 415.371L104.922 407.312H98.6797Z" fill="url(#paint21_linear_1839_2047)"/>
<path d="M137.746 428.925C132.829 428.788 130.285 428.21 128.971 427.672C128.971 428.16 128.971 428.664 128.986 429.173C128.98 429.427 129.074 429.673 129.247 429.858C129.421 430.043 129.66 430.154 129.913 430.165L156.909 429.992C157.77 429.992 158.274 428.987 157.901 428.196C154.361 428.484 145.345 429.139 137.746 428.925Z" fill="#021E14"/>
<path d="M157.901 428.191C157.871 428.121 157.835 428.053 157.793 427.988C155.409 424.657 149.337 418.023 137.339 415.146L131.583 414.965C131.583 414.965 129.019 419.42 128.971 427.672C130.293 428.21 132.829 428.788 137.746 428.925C145.345 429.139 154.361 428.484 157.901 428.191Z" fill="#063022"/>
<path d="M130.26 406.509C130.351 406.934 131.548 413.392 132.012 415.895C132.054 416.173 132.187 416.429 132.391 416.621C132.595 416.814 132.858 416.933 133.138 416.958C134.13 417.013 135.713 417.019 137.081 416.649C137.818 416.449 138.312 415.697 138.261 414.862L137.616 404.646L130.26 406.509Z" fill="url(#paint22_linear_1839_2047)"/>
<path d="M125.897 287.258C125.897 287.258 133.814 341.667 139.528 406.416C139.634 407.621 138.674 408.671 137.49 408.921C135.744 409.288 133.177 409.724 131.053 409.665C130.503 409.647 129.977 409.439 129.563 409.078C129.149 408.716 128.873 408.223 128.781 407.681C126.834 396.264 112.943 334.997 109.297 321.512C109.297 321.512 105.11 378.791 106.449 408.507C106.466 408.864 106.347 409.213 106.116 409.485C105.885 409.756 105.56 409.931 105.206 409.972C103.488 410.156 101.755 410.151 100.038 409.959C99.6203 409.917 99.2283 409.737 98.9243 409.447C98.6204 409.157 98.4219 408.774 98.3603 408.359C96.9733 398.696 88.9919 341.186 89.3308 299.759C89.3506 297.423 92.0717 278.228 92.0717 278.228L125.897 287.258Z" fill="#083E2C"/>
<path d="M90.885 290.394C90.4866 290.25 90.1369 289.997 89.8765 289.663C89.6161 289.329 89.4556 288.929 89.4137 288.507C88.3606 278.291 83.2624 214.943 115.449 188.894C115.449 188.894 117.296 184.063 132.468 195.935C147.641 207.806 139.517 220.251 135.885 237.414C131.489 258.182 123.776 275.158 127.19 287.939C127.305 288.364 127.258 288.817 127.057 289.21C126.856 289.603 126.516 289.906 126.104 290.061C114.318 294.406 102.578 294.55 90.885 290.394Z" fill="#77BE1D"/>
<path d="M128.004 169.914C127.994 170.817 115.141 189.072 115.141 189.072C115.141 189.072 117.455 193.615 128.462 197.303L137.969 177.758L128.004 169.914Z" fill="url(#paint23_linear_1839_2047)"/>
<path d="M138.122 159.455C138.122 159.455 142.696 169.959 143.004 175.474C143.311 180.989 144.492 184.566 138.122 185.675C131.753 186.785 126.385 183.611 123.467 178.117C123.467 178.117 118.908 169.655 119.931 166.188C120.954 162.721 138.122 159.455 138.122 159.455Z" fill="url(#paint24_linear_1839_2047)"/>
<path d="M125.642 174.168L126.005 174.002C126.114 173.954 126.213 173.885 126.294 173.797C126.376 173.709 126.439 173.606 126.479 173.493C126.519 173.381 126.536 173.261 126.528 173.141C126.52 173.022 126.487 172.905 126.433 172.799C125.533 171.063 123.788 167.082 126.046 166.153C128.964 164.956 140.521 162.599 143.015 158.498C145.412 154.556 143.288 149.468 140.098 148.022C139.996 147.973 139.88 147.966 139.773 148C139.666 148.035 139.576 148.11 139.522 148.208L139.256 148.713C139.215 148.789 139.153 148.851 139.077 148.891C139.001 148.931 138.914 148.948 138.828 148.939C138.743 148.931 138.661 148.896 138.595 148.841C138.529 148.786 138.48 148.713 138.456 148.63C138.433 148.55 138.388 148.478 138.325 148.423C138.262 148.368 138.185 148.332 138.102 148.32C138.02 148.308 137.936 148.321 137.86 148.356C137.784 148.391 137.72 148.447 137.676 148.518C136.91 149.746 134.841 151.735 129.306 152.756C121.44 154.208 116.246 157.385 116.11 162.825C116.109 162.903 116.088 162.979 116.047 163.045C116.007 163.111 115.95 163.165 115.881 163.202C115.813 163.238 115.736 163.256 115.658 163.252C115.581 163.249 115.506 163.225 115.441 163.183C114.859 162.829 113.93 162.663 112.688 163.707C110.528 165.525 111.412 170.235 116.147 174.111C116.2 174.153 116.243 174.206 116.272 174.267C116.301 174.328 116.315 174.395 116.313 174.463C116.312 174.53 116.294 174.597 116.261 174.656C116.229 174.715 116.183 174.766 116.127 174.804C115.269 175.363 113.989 176.694 117.306 178.466C120.734 180.299 123.295 180.149 124.282 179.987C124.34 179.977 124.395 179.955 124.445 179.923C124.494 179.891 124.536 179.849 124.569 179.801C124.602 179.752 124.624 179.697 124.635 179.639C124.646 179.581 124.645 179.522 124.632 179.464L123.579 174.688C123.565 174.625 123.566 174.559 123.58 174.496C123.595 174.433 123.624 174.374 123.664 174.323C123.705 174.273 123.756 174.232 123.815 174.204C123.874 174.176 123.938 174.161 124.003 174.161L125.642 174.168Z" fill="#1D1D1D"/>
<path d="M125.844 175.176C125.844 175.176 124.1 168.466 121.091 170.347C118.083 172.229 122.654 177.866 125.072 178.117L125.844 175.176Z" fill="url(#paint25_linear_1839_2047)"/>
<path d="M137.348 201.445L138.234 225.25C140.591 226.068 142.994 226.75 145.43 227.293C146.857 222.697 149.999 217.059 152.573 212.864C143.117 209.515 137.348 201.445 137.348 201.445Z" fill="#77BE1D"/>
<path d="M184.555 201.04C171.584 215.043 161.08 215.868 152.573 212.858C149.999 217.052 146.856 222.691 145.43 227.287C180.066 234.922 188.223 203.081 188.223 203.081L184.555 201.04Z" fill="url(#paint26_linear_1839_2047)"/>
<path d="M187.184 199.552C187.184 199.552 188.671 197.948 191.444 198.452C194.216 198.957 196.669 199.917 198.387 198.452C200.105 196.988 200.716 198.948 200.716 198.948L195.57 202.875L187.184 199.552Z" fill="url(#paint27_linear_1839_2047)"/>
<path d="M184.1 202.294C184.1 202.294 185.123 198.014 188.208 198.601C191.292 199.188 198.292 202.997 200.11 202.294C201.929 201.592 204.223 199.914 205.4 200.507L203.314 203.101C203.314 203.101 208.677 200.008 209.596 201.907L200.669 206.928C200.669 206.928 187.622 205.622 184.1 202.294Z" fill="#161119"/>
<path d="M122.949 232.598C122.949 232.598 147.333 253.019 173.664 244.109C174.471 243.832 175.325 243.723 176.175 243.786C177.025 243.85 177.853 244.087 178.609 244.481L186.179 248.48C187.709 249.288 189.491 249.479 191.157 249.012C192.823 248.545 194.247 247.457 195.135 245.972C196.187 244.213 197.084 242.203 197.263 240.279L182.449 234.281L183.542 232.463C183.542 232.463 176.309 231.849 174.417 237.032C174.417 237.032 160.643 242.762 137.411 217.211C137.411 217.209 126.869 226.172 122.949 232.598Z" fill="url(#paint28_linear_1839_2047)"/>
<path d="M121.638 232.382C121.555 232.382 121.474 232.357 121.405 232.31C111.137 225.367 106.307 214.176 106.259 214.063C106.237 214.013 106.225 213.958 106.225 213.903C106.224 213.848 106.234 213.794 106.254 213.743C106.275 213.692 106.305 213.645 106.343 213.606C106.382 213.567 106.427 213.535 106.478 213.513C106.528 213.492 106.582 213.48 106.637 213.479C106.692 213.479 106.747 213.489 106.798 213.509C106.849 213.529 106.895 213.56 106.935 213.598C106.974 213.636 107.006 213.682 107.027 213.732C107.074 213.842 111.821 224.818 121.871 231.613C121.945 231.663 122 231.736 122.03 231.82C122.059 231.904 122.061 231.995 122.035 232.08C122.009 232.166 121.957 232.24 121.885 232.294C121.814 232.347 121.727 232.376 121.638 232.377V232.382Z" fill="#2F305C"/>
<path d="M136.931 216.862C136.861 216.862 136.792 216.844 136.731 216.811C136.669 216.777 136.617 216.729 136.579 216.67C136.549 216.622 133.412 211.74 127.437 201.041C125.6 197.751 123.185 195.669 120.261 194.85C115.417 193.498 110.75 196.093 110.704 196.12C110.608 196.167 110.498 196.176 110.396 196.145C110.294 196.114 110.207 196.045 110.154 195.952C110.102 195.859 110.086 195.75 110.112 195.646C110.137 195.542 110.201 195.452 110.291 195.394C110.492 195.28 115.293 192.594 120.479 194.045C123.62 194.925 126.215 197.141 128.166 200.635C134.117 211.306 137.258 216.174 137.282 216.219C137.311 216.265 137.332 216.316 137.342 216.37C137.352 216.424 137.351 216.479 137.339 216.533C137.328 216.587 137.306 216.637 137.275 216.682C137.243 216.728 137.204 216.766 137.158 216.796C137.09 216.839 137.011 216.862 136.931 216.862Z" fill="#2F305C"/>
<defs>
<linearGradient id="paint0_linear_1839_2047" x1="331.328" y1="324.675" x2="389.405" y2="324.675" gradientUnits="userSpaceOnUse">
<stop stop-color="#DAE3FE"/>
<stop offset="1" stop-color="#E9EFFD"/>
</linearGradient>
<linearGradient id="paint1_linear_1839_2047" x1="263.179" y1="83.1805" x2="-111.152" y2="562.208" gradientUnits="userSpaceOnUse">
<stop stop-color="white"/>
<stop offset="1" stop-color="white"/>
</linearGradient>
<linearGradient id="paint2_linear_1839_2047" x1="187.005" y1="243.135" x2="177.788" y2="244.944" gradientUnits="userSpaceOnUse">
<stop stop-color="#FEBBBA"/>
<stop offset="1" stop-color="#FF928E"/>
</linearGradient>
<linearGradient id="paint3_linear_1839_2047" x1="179.385" y1="233.858" x2="222.155" y2="233.858" gradientUnits="userSpaceOnUse">
<stop stop-color="#FEBBBA"/>
<stop offset="1" stop-color="#FF928E"/>
</linearGradient>
<linearGradient id="paint4_linear_1839_2047" x1="275.08" y1="191.079" x2="268.223" y2="170.503" gradientUnits="userSpaceOnUse">
<stop stop-color="#FEBBBA"/>
<stop offset="1" stop-color="#FF928E"/>
</linearGradient>
<linearGradient id="paint5_linear_1839_2047" x1="259.062" y1="165.829" x2="283.712" y2="176.547" gradientUnits="userSpaceOnUse">
<stop stop-color="#FEBBBA"/>
<stop offset="1" stop-color="#FF928E"/>
</linearGradient>
<linearGradient id="paint6_linear_1839_2047" x1="257.526" y1="169.362" x2="282.176" y2="180.079" gradientUnits="userSpaceOnUse">
<stop stop-color="#FEBBBA"/>
<stop offset="1" stop-color="#FF928E"/>
</linearGradient>
<linearGradient id="paint7_linear_1839_2047" x1="303.045" y1="415.127" x2="294.416" y2="415.127" gradientUnits="userSpaceOnUse">
<stop stop-color="#FEBBBA"/>
<stop offset="1" stop-color="#FF928E"/>
</linearGradient>
<linearGradient id="paint8_linear_1839_2047" x1="366.949" y1="428.853" x2="355.21" y2="428.853" gradientUnits="userSpaceOnUse">
<stop stop-color="#4042E2"/>
<stop offset="1" stop-color="#4F52FF"/>
</linearGradient>
<linearGradient id="paint9_linear_1839_2047" x1="357.906" y1="407.934" x2="347.592" y2="407.934" gradientUnits="userSpaceOnUse">
<stop stop-color="#FEBBBA"/>
<stop offset="1" stop-color="#FF928E"/>
</linearGradient>
<linearGradient id="paint10_linear_1839_2047" x1="321.519" y1="394.753" x2="309.342" y2="307.225" gradientUnits="userSpaceOnUse">
<stop stop-color="#FF928E"/>
<stop offset="1" stop-color="#FE7062"/>
</linearGradient>
<linearGradient id="paint11_linear_1839_2047" x1="292.552" y1="291.021" x2="290.82" y2="280.843" gradientUnits="userSpaceOnUse">
<stop stop-color="#E1473D"/>
<stop offset="1" stop-color="#E9605A"/>
</linearGradient>
<linearGradient id="paint12_linear_1839_2047" x1="290.052" y1="275.73" x2="295.916" y2="304.777" gradientUnits="userSpaceOnUse">
<stop stop-color="#E1473D"/>
<stop offset="1" stop-color="#E9605A"/>
</linearGradient>
<linearGradient id="paint13_linear_1839_2047" x1="320.901" y1="286.196" x2="319.168" y2="276.02" gradientUnits="userSpaceOnUse">
<stop stop-color="#E1473D"/>
<stop offset="1" stop-color="#E9605A"/>
</linearGradient>
<linearGradient id="paint14_linear_1839_2047" x1="318.212" y1="270.046" x2="324.077" y2="299.093" gradientUnits="userSpaceOnUse">
<stop stop-color="#E1473D"/>
<stop offset="1" stop-color="#E9605A"/>
</linearGradient>
<linearGradient id="paint15_linear_1839_2047" x1="304.677" y1="257.27" x2="304.505" y2="278.512" gradientUnits="userSpaceOnUse">
<stop stop-color="#E1473D"/>
<stop offset="1" stop-color="#E9605A"/>
</linearGradient>
<linearGradient id="paint16_linear_1839_2047" x1="292.4" y1="272.045" x2="282.676" y2="216.819" gradientUnits="userSpaceOnUse">
<stop stop-color="#FEBBBA"/>
<stop offset="1" stop-color="#FF928E"/>
</linearGradient>
<linearGradient id="paint17_linear_1839_2047" x1="307.617" y1="273.423" x2="309.659" y2="372.196" gradientUnits="userSpaceOnUse">
<stop stop-color="#FF928E"/>
<stop offset="1" stop-color="#FE7062"/>
</linearGradient>
<linearGradient id="paint18_linear_1839_2047" x1="309.914" y1="285.35" x2="309.976" y2="318.462" gradientUnits="userSpaceOnUse">
<stop stop-color="#E1473D"/>
<stop offset="1" stop-color="#E9605A"/>
</linearGradient>
<linearGradient id="paint19_linear_1839_2047" x1="304.374" y1="312.045" x2="316.333" y2="310.513" gradientUnits="userSpaceOnUse">
<stop stop-color="#FF928E"/>
<stop offset="1" stop-color="#FE7062"/>
</linearGradient>
<linearGradient id="paint20_linear_1839_2047" x1="317.355" y1="250.841" x2="294.002" y2="295.751" gradientUnits="userSpaceOnUse">
<stop stop-color="#FEBBBA"/>
<stop offset="1" stop-color="#FF928E"/>
</linearGradient>
<linearGradient id="paint21_linear_1839_2047" x1="103.958" y1="398.575" x2="100.118" y2="432.08" gradientUnits="userSpaceOnUse">
<stop stop-color="#A22B25"/>
<stop offset="1" stop-color="#C0423C"/>
</linearGradient>
<linearGradient id="paint22_linear_1839_2047" x1="134.731" y1="402.125" x2="133.008" y2="435.804" gradientUnits="userSpaceOnUse">
<stop stop-color="#A22B25"/>
<stop offset="1" stop-color="#C0423C"/>
</linearGradient>
<linearGradient id="paint23_linear_1839_2047" x1="115.6" y1="208.062" x2="136.271" y2="161.554" gradientUnits="userSpaceOnUse">
<stop stop-color="#A22B25"/>
<stop offset="1" stop-color="#C0423C"/>
</linearGradient>
<linearGradient id="paint24_linear_1839_2047" x1="108.757" y1="135.248" x2="138.114" y2="180.017" gradientUnits="userSpaceOnUse">
<stop stop-color="#A22B25"/>
<stop offset="1" stop-color="#C0423C"/>
</linearGradient>
<linearGradient id="paint25_linear_1839_2047" x1="101.083" y1="140.282" x2="130.44" y2="185.05" gradientUnits="userSpaceOnUse">
<stop stop-color="#A22B25"/>
<stop offset="1" stop-color="#C0423C"/>
</linearGradient>
<linearGradient id="paint26_linear_1839_2047" x1="201.678" y1="199.039" x2="145.592" y2="226.939" gradientUnits="userSpaceOnUse">
<stop stop-color="#A22B25"/>
<stop offset="1" stop-color="#C0423C"/>
</linearGradient>
<linearGradient id="paint27_linear_1839_2047" x1="200.855" y1="192.043" x2="181.67" y2="212.079" gradientUnits="userSpaceOnUse">
<stop stop-color="#A22B25"/>
<stop offset="1" stop-color="#C0423C"/>
</linearGradient>
<linearGradient id="paint28_linear_1839_2047" x1="225.381" y1="246.048" x2="62.6128" y2="216.616" gradientUnits="userSpaceOnUse">
<stop stop-color="#A22B25"/>
<stop offset="1" stop-color="#C0423C"/>
</linearGradient>
</defs>
</svg>
